<?xml version="1.0" encoding="UTF-8" standalone="no"?>
<!-- Created with Inkscape (http://www.inkscape.org/) -->

<svg
   xmlns:dc="http://purl.org/dc/elements/1.1/"
   xmlns:cc="http://creativecommons.org/ns#"
   xmlns:rdf="http://www.w3.org/1999/02/22-rdf-syntax-ns#"
   xmlns:svg="http://www.w3.org/2000/svg"
   xmlns="http://www.w3.org/2000/svg"
   xmlns:sodipodi="http://sodipodi.sourceforge.net/DTD/sodipodi-0.dtd"
   xmlns:inkscape="http://www.inkscape.org/namespaces/inkscape"
   width="102.09615mm"
   height="112.18141mm"
   viewBox="0 0 102.09615 112.18141"
   version="1.1"
   id="svg1439"
   inkscape:version="0.92.2 5c3e80d, 2017-08-06"
   sodipodi:docname="ena-logo-final.svg">
  <defs
     id="defs1433" />
  <sodipodi:namedview
     id="base"
     pagecolor="#ffffff"
     bordercolor="#666666"
     borderopacity="1.0"
     inkscape:pageopacity="0.0"
     inkscape:pageshadow="2"
     inkscape:zoom="1.4"
     inkscape:cx="283.52285"
     inkscape:cy="213.2567"
     inkscape:document-units="mm"
     inkscape:current-layer="layer1"
     showgrid="false"
     fit-margin-top="0"
     fit-margin-left="0"
     fit-margin-right="0"
     fit-margin-bottom="0"
     inkscape:window-width="2560"
     inkscape:window-height="1349"
     inkscape:window-x="0"
     inkscape:window-y="0"
     inkscape:window-maximized="1" />
  <metadata
     id="metadata1436">
    <rdf:RDF>
      <cc:Work
         rdf:about="">
        <dc:format>image/svg+xml</dc:format>
        <dc:type
           rdf:resource="http://purl.org/dc/dcmitype/StillImage" />
        <dc:title></dc:title>
      </cc:Work>
    </rdf:RDF>
  </metadata>
  <g
     inkscape:label="Layer 1"
     inkscape:groupmode="layer"
     id="layer1"
     transform="translate(-76.664291,-39.070042)">
    <path
       style="fill:#000000;stroke:#000000;stroke-width:0.64000005;stroke-miterlimit:4;stroke-dasharray:none;stroke-opacity:1"
       d="m 609.00586,147.98633 c -12.39351,0.0173 -23.02332,8.64233 -24.51563,22.83789 -1.5033,14.3003 11.94112,21.86273 18.72461,10.5332 2.51898,-4.20708 5.68955,-6.53704 7.05078,-5.17578 3.63281,3.63278 -8.83067,20.28758 -25.83593,34.85547 -4.58881,-0.0265 -10.46473,-0.006 -18.40821,0.0488 -22.31134,0.15265 -32.3155,-0.15387 -32.81054,-1.00782 -0.39167,-0.67593 -0.79787,-11.18486 -0.89844,-23.35156 l -0.18359,-22.11914 -3.83399,-1.92578 c -3.41807,-1.71599 -9.12701,-2.45533 -52.4668,-2.24609 -16.89023,0.0815 -45.75935,-0.18765 -48.44726,2.78906 -2.59831,3.2161 -2.30557,6.76839 -2.92969,15.87305 0.40177,6.52777 -0.70866,14.86218 -0.21679,19.17382 0.49269,4.31169 0.73772,8.00718 0.54296,8.21485 -0.19351,0.20651 -11.17954,1.05687 -24.41601,1.88867 -13.23629,0.83181 -25.01529,1.85468 -26.17383,2.27344 -0.53,0.19161 -1.1589,0.4387 -1.79297,0.6914 -14.49335,-13.41049 -24.36512,-27.34776 -21.08008,-30.63281 1.36126,-1.36126 4.53377,0.9687 7.05274,5.17578 6.78347,11.32953 20.22793,3.7671 18.72461,-10.5332 -2.17062,-20.6481 -23.676,-29.51223 -41.81836,-17.24023 -11.64633,7.87794 -12.98869,23.98667 -2.93555,35.21874 3.63152,4.05714 7.48167,8.78889 8.55469,10.51172 0.88893,1.42723 10.11817,11.28454 21.66601,23.22071 -0.0996,2.55338 -0.12578,5.62611 -0.10742,9.05273 -0.60739,-0.65818 -1.15879,-1.24572 -1.78515,-1.92773 -37.70258,-41.05215 -47.45369,-45.62449 -63.48633,-29.76953 -6.92883,6.8565 -9.5518,24.76656 -4.37696,29.9414 4.38327,4.38326 28.07492,2.99977 29.18555,-1.70508 0.56695,-2.40146 -0.41233,-7.82911 -2.17969,-12.0664 -2.04792,-4.91095 8.58465,4.45681 29.31641,25.84765 l 13.87109,14.3125 c 0.0971,7.82316 -0.32451,8.94989 -1.72461,10.30079 -2.40869,2.32426 -15.30451,3.87463 -42.66015,5.13867 -15.51741,0.71723 -17.90685,1.08695 -19.69336,3.01367 -1.76811,1.9071 -2.18589,4.96885 -3.20703,23.52344 -1.30217,23.66611 -1.1396,27.12461 4.78711,99.94336 0.85462,10.49941 1.55291,20.97314 1.55078,23.27343 -0.004,3.44017 0.51317,4.4668 2.92187,5.79493 4.35359,2.40049 18.47315,3.37738 27.61524,1.9082 7.25006,-1.16519 16.8633,-0.45912 18.57617,1.36719 0.31548,0.33637 0.99213,8.10115 1.50195,17.25781 0.008,0.13918 0.0175,0.26007 0.0254,0.39844 l -2.66211,2.74804 c -20.73176,21.39088 -31.36433,30.75859 -29.3164,25.84766 1.76736,-4.23731 2.74467,-9.66493 2.17773,-12.06641 -1.11063,-4.70483 -24.80228,-6.08834 -29.18555,-1.70508 -5.17484,5.17486 -2.54991,23.08689 4.37891,29.94336 15.06186,14.89495 24.58963,11.74706 56.94727,-22.72461 0.65786,3.3666 1.38552,5.67626 2.16797,6.5879 -8.38952,8.77169 -14.68461,15.55855 -15.40235,16.71093 -1.07302,1.72282 -4.92317,6.45459 -8.55469,10.51172 -10.05314,11.23208 -8.71078,27.34082 2.93555,35.21875 18.14236,12.27198 39.64581,3.40786 41.81641,-17.24023 1.5033,-14.3003 -11.94113,-21.86272 -18.72461,-10.53321 -2.51897,4.20711 -5.68953,6.53706 -7.05078,5.17578 -3.77743,-3.77741 9.83438,-21.64014 27.875,-36.58984 1.36572,-1.13172 2.82111,-2.37144 4.2539,-3.58203 15.96251,-0.61695 34.41409,-0.83332 34.92188,-0.25977 0.27326,0.30879 1.29391,10.41556 2.26562,22.45899 2.07115,25.67025 2.94092,20.86414 6.15821,22.05469 1.27411,0.47168 6.5796,1.0007 11.79297,1.17187 5.21332,0.17197 13.26834,0.71109 17.90234,1.19922 4.63415,0.48722 24.77555,0.62962 44.75976,0.31641 30.66373,-0.48038 30.60615,-0.83694 32.17579,-2.29493 1.67391,-1.55429 1.83221,5.3971 1.58007,-13.37109 -0.0575,-4.29282 -0.048,-8.29977 -0.0117,-11.94531 0.27704,-5.88665 0.60778,-10.22419 0.99805,-12.88086 2.0431,-2.9276 9.54091,-3.61671 22.7793,-3.48633 0.44239,0.41182 0.8459,0.77016 1.33594,1.24414 4.53327,4.38452 15.5074,14.00446 24.40429,21.37695 18.0406,14.9497 31.65245,32.8124 27.875,36.58985 -1.36127,1.36123 -4.53375,-0.96676 -7.05273,-5.17383 -6.78346,-11.32955 -20.22792,-3.76905 -18.72461,10.53125 2.17058,20.64809 23.67598,29.5142 41.81836,17.24219 11.64631,-7.87794 12.98867,-23.98668 2.93555,-35.21875 -3.63153,-4.05714 -7.48165,-8.79085 -8.55469,-10.51367 -1.07301,-1.72283 -14.10799,-15.55911 -28.97461,-30.74805 -2.19772,-2.24544 -4.19893,-4.33403 -6.10938,-6.34766 2.08697,-0.50448 3.25689,-1.17661 3.56446,-2.03125 0.15255,-0.42395 0.33906,-1.60528 0.54101,-3.20898 3.3314,3.48628 7.05864,7.47544 11.20508,11.99023 37.70256,41.05213 47.45372,45.62645 63.48633,29.77149 6.92882,-6.85652 9.55177,-24.76851 4.37695,-29.94336 -4.38323,-4.38327 -28.07493,-2.99979 -29.18554,1.70508 -0.56697,2.40143 0.4123,7.82914 2.17968,12.0664 2.0479,4.91097 -8.5846,-4.45486 -29.3164,-25.8457 L 594.5762,455.85739 c 0.27594,-4.09107 0.55276,-8.44882 0.81641,-13.0918 0.45524,-8.01773 1.22632,-13.21721 2.09765,-14.14648 1.05347,-1.12411 10.25506,0.78123 39.07422,0.15625 20.73075,-0.44976 35.44147,-3.71294 36.41016,-4.26562 1.54741,-0.88294 1.81317,-4.17786 2.21875,-27.14454 0.25398,-14.37683 0.0786,-31.95034 -0.39258,-39.05273 -0.47085,-7.10262 -1.11512,-25.29426 -1.42969,-40.42578 -0.6836,-32.8769 -1.75018,-39.91189 -6.59179,-43.39063 -4.49741,-3.22293 -17.68387,-4.33857 -44.19922,-3.22265 -14.40019,0.60589 -19.40595,0.49073 -18.86914,-0.43555 0.40195,-0.69328 0.21114,-8.96032 -0.42578,-18.37305 -0.0219,-0.32385 -0.0426,-0.69685 -0.0645,-1.02734 l 9.23438,-9.5293 c 20.73177,-21.39085 31.36434,-30.7586 29.3164,-25.84765 -1.76734,4.23729 -2.74466,9.66494 -2.17773,12.0664 1.11065,4.70485 24.80228,6.08834 29.18555,1.70508 5.17485,-5.17484 2.54991,-23.08686 -4.37891,-29.94336 -15.87355,-15.69762 -25.63152,-11.31238 -62.41406,28.61719 -0.0493,-1.26091 -0.10617,-2.60862 -0.13086,-3.55078 -0.0525,-2.00439 -0.12426,-3.68448 -0.22266,-5.10938 10.32842,-10.72119 18.23154,-19.20963 19.05469,-20.53125 1.07301,-1.72283 4.92317,-6.45459 8.55469,-10.51172 10.05316,-11.23207 8.7108,-27.3408 -2.93555,-35.21875 -5.66948,-3.835 -11.66737,-5.60552 -17.30078,-5.59765 z m -83.48828,133.24023 c 5.58391,-0.0983 8.74941,1.12069 9.23047,8.59766 0.16478,2.72932 0.24563,39.18114 0.16211,67.86523 -0.0401,41.22709 2.82872,60.74491 -0.86524,60.99024 -2.27962,2.92879 -19.39518,-6.16162 -63.0293,-32.10547 -6.77767,-2.66476 -11.82064,-4.30625 -13.38476,-4.36328 l -2.50977,-0.0879 -1.4707,23.14062 c 0.17575,10.88693 0.51996,15.94455 -15.14062,15.28321 -6.77171,0.14248 -17.67679,2.12594 -18.07618,-7.41211 0.2332,-3.84246 -0.8047,-105.56208 -0.43359,-116.38282 0.29178,-8.51406 0.51436,-10.06183 1.68359,-11.64648 0.659,-0.89434 0.79024,-0.93124 2.80469,-0.75781 3.90542,0.33724 44.59044,15.67627 68.13867,25 10.77899,4.26765 10.42818,4.9963 10.58008,4.54492 0.0265,-0.0817 0.24425,-4.43807 0.48047,-9.67969 0.45672,-10.13454 -1.13679,-18.25272 1.61523,-20.99414 7.45425,-2.86236 11.20375,-1.49796 17.67774,-1.88477 0.89575,-0.0537 1.7394,-0.0933 2.53711,-0.10742 z m 83.59765,1.65821 c 2.95817,-0.006 6.00076,0.0272 9.13868,0.11132 23.28438,0.62573 30.59901,1.13722 31.86523,2.22461 0.38033,0.32678 1.52178,0.78492 2.53711,1.01563 1.1986,0.27314 2.01965,0.90505 2.33789,1.79687 0.2691,0.75558 0.77084,1.56119 1.11524,1.78711 1.02882,0.67799 1.63438,3.03265 2.23242,8.66016 0.50638,4.76559 0.44191,23.17952 1.56836,82.45117 0.44349,23.32906 -0.45412,31.11518 -3.8086,33.06836 -1.53101,0.89136 -24.35978,0.85371 -25.19922,-0.041 -0.49202,-0.5249 -1.07109,-8.62958 -1.79687,-25.21679 l -0.35938,-8.24219 -15.13671,0.375 c -22.4456,0.55476 -34.15986,0.96402 -35.30665,1.85742 -0.89828,0.69967 -1.03182,2.29952 -1.33789,15.8418 -0.18746,8.28427 -0.5217,15.50768 -0.74023,16.05469 -0.55589,1.38274 -1.46205,1.65454 -7.53711,2.28515 -9.16649,0.95108 -16.2192,0.75056 -18.17578,-0.52148 -2.73593,-1.7791 -3.62908,-3.83294 -4.13867,-9.48828 -0.25588,-2.83907 -1.06211,-30.71742 -0.66016,-61.94532 0.25247,-19.62028 -4.00266,-55.34584 8.44922,-57.79492 17.58935,-2.06587 34.24581,-4.2249 54.95312,-4.27929 z m -204.25195,2.16211 c 3.57272,0.0513 4.25,0.67553 4.25,1.98242 0,0.49087 0.4258,1.57691 0.94141,2.41601 1.94638,3.16725 1.52668,30.3119 -0.49805,32.47071 -1.19002,1.26859 -6.5461,1.85754 -23.58398,2.58984 -13.93543,0.60018 -24.10508,-0.17415 -28.05078,0.60547 -2.4071,0.47566 -1.55208,3.85086 -0.57227,4.43555 9.80152,1.1417 17.74114,-0.81665 26.41406,0.99414 0.63889,2.52531 0.9444,33.94244 0.75391,40.55078 -5.07916,0.76722 -14.92256,0.85829 -22.72461,0.55273 -0.47279,0.32565 -0.61651,0.98961 -0.38086,1.78125 0.29941,1.00615 0.82429,2.77734 2.57227,2.77734 5.55214,0 42.47531,-1.62913 45,-0.5039 3.98207,2e-5 -0.0547,41.88867 -0.0547,41.88867 -5.5132,0.35565 -38.29267,3.04888 -55.86133,1.6582 -26.05134,-0.57093 -33.17453,-2.30453 -35.93359,-2.83007 0,0 -3.5539,0.78674 -3.9961,-6.95899 -1.11123,-19.46396 -3.09502,-116.68985 -2.29883,-117.91211 0.90386,-1.38726 21.35311,-2.9542 54.77735,-4.27344 8.74143,-0.34499 19.15521,-0.90187 23.14258,-1.23437 6.78236,-0.56567 11.34063,-0.90107 14.38867,-0.97656 0.63501,-0.0157 1.20445,-0.021 1.71484,-0.0137 z m 215.4336,57.8789 c -0.81287,0.006 -1.83553,0.0369 -3.04297,0.0898 -2.41493,0.10613 -5.54791,0.29981 -8.8711,0.55274 -6.44186,0.4903 -16.2145,0.89648 -20.07812,0.89648 h -7.08399 c -2.18411,10e-4 -4.17078,2.11851 -4.17187,4.44727 v 2.06836 c 7.2e-4,0.30833 0.0302,0.61642 0.0918,0.91797 0.034,0.16293 0.32227,3.32388 0.32227,5.41601 0.002,0.0595 0.002,0.1184 0.01,0.17774 v 4.08789 c -10e-4,2.33172 1.98891,4.45428 4.17578,4.45312 h 8.7207 c 4.885,-9.4e-4 14.82661,-0.16668 21.13672,-0.36718 l 11.35742,-0.35938 c 2.14194,-0.0699 4.0468,-2.16436 4.04688,-4.44922 v -6.54297 c 0,-2.79229 -10e-4,-4.46774 -0.25196,-6.10547 -0.1251,-0.81885 -0.29941,-1.72464 -0.9414,-2.77734 -0.64199,-1.05268 -1.92252,-1.96513 -2.82813,-2.25586 -1.12974,-0.36306 -1.15546,-0.2217 -1.49414,-0.23633 -0.33864,-0.0136 -0.6873,-0.0159 -1.09375,-0.0137 z"
       transform="scale(0.26458333)"
       id="path4103"
       inkscape:connector-curvature="0" />
  </g>
</svg>
