<?xml version="1.0" encoding="UTF-8" standalone="no"?>
<!-- Created with Inkscape (http://www.inkscape.org/) -->

<svg
   xmlns:dc="http://purl.org/dc/elements/1.1/"
   xmlns:cc="http://creativecommons.org/ns#"
   xmlns:rdf="http://www.w3.org/1999/02/22-rdf-syntax-ns#"
   xmlns:svg="http://www.w3.org/2000/svg"
   xmlns="http://www.w3.org/2000/svg"
   xmlns:sodipodi="http://sodipodi.sourceforge.net/DTD/sodipodi-0.dtd"
   xmlns:inkscape="http://www.inkscape.org/namespaces/inkscape"
   width="210mm"
   height="297mm"
   id="svg2"
   version="1.1"
   inkscape:version="0.48+devel r12853"
   viewBox="0 0 744.09447 1052.3622"
   sodipodi:docname="milton.svg">
  <defs
     id="defs4">
    <inkscape:path-effect
       effect="spiro"
       id="path-effect4789"
       is_visible="true" />
    <inkscape:path-effect
       effect="spiro"
       id="path-effect4745"
       is_visible="true" />
    <inkscape:path-effect
       effect="spiro"
       id="path-effect4701"
       is_visible="true" />
    <inkscape:path-effect
       effect="spiro"
       id="path-effect4641"
       is_visible="true" />
    <inkscape:path-effect
       effect="spiro"
       id="path-effect4629"
       is_visible="true" />
    <inkscape:path-effect
       effect="spiro"
       id="path-effect4621"
       is_visible="true" />
    <inkscape:path-effect
       effect="spiro"
       id="path-effect4605"
       is_visible="true" />
    <inkscape:path-effect
       effect="spiro"
       id="path-effect4593"
       is_visible="true" />
    <inkscape:path-effect
       effect="spiro"
       id="path-effect4553"
       is_visible="true" />
    <inkscape:path-effect
       effect="spiro"
       id="path-effect4529"
       is_visible="true" />
    <inkscape:path-effect
       effect="spiro"
       id="path-effect4481"
       is_visible="true" />
    <inkscape:path-effect
       effect="powerstroke"
       id="path-effect4227"
       is_visible="true"
       offset_points="0,1 | 40,1"
       sort_points="true"
       interpolator_type="CubicBezierJohan"
       interpolator_beta="0.2"
       start_linecap_type="round"
       linejoin_type="round"
       miter_limit="4"
       end_linecap_type="round" />
  </defs>
  <sodipodi:namedview
     id="base"
     pagecolor="#ffffff"
     bordercolor="#666666"
     borderopacity="1.0"
     inkscape:pageopacity="0.0"
     inkscape:pageshadow="2"
     inkscape:zoom="0.8314628"
     inkscape:cx="52.736376"
     inkscape:cy="582.49016"
     inkscape:document-units="px"
     inkscape:current-layer="layer3"
     showgrid="false"
     inkscape:window-width="1920"
     inkscape:window-height="1027"
     inkscape:window-x="1918"
     inkscape:window-y="-3"
     inkscape:window-maximized="1"
     showguides="false" />
  <metadata
     id="metadata7">
    <rdf:RDF>
      <cc:Work
         rdf:about="">
        <dc:format>image/svg+xml</dc:format>
        <dc:type
           rdf:resource="http://purl.org/dc/dcmitype/StillImage" />
        <dc:title></dc:title>
      </cc:Work>
    </rdf:RDF>
  </metadata>
  <g
     inkscape:groupmode="layer"
     id="layer3"
     inkscape:label="Relleno"
     style="display:inline">
    <path
       style="fill:#e9b96e;fill-opacity:1;stroke:#e9b96e;stroke-width:1;stroke-linecap:round;stroke-linejoin:bevel;stroke-miterlimit:4;stroke-opacity:1;stroke-dasharray:none;stroke-dashoffset:0"
       d="m 374.70735,481.48 c -6.33597,-2.3998 -11.00064,-4.66498 -17.74723,-8.61812 -5.88319,-3.44724 -13.92014,-8.57333 -16.64239,-10.61478 -6.7131,-5.03424 -15.29141,-14.33048 -18.57426,-20.12876 -0.92714,-1.63756 -2.12348,-5.07898 -1.85193,-5.32735 0.0511,-0.0468 2.59609,0.0592 5.65546,0.23552 8.28597,0.47751 49.06181,0.45842 54.08314,-0.0253 5.96013,-0.57418 16.31179,-3.07111 23.4612,-5.65909 1.55568,-0.56314 2.88986,-0.96253 2.96484,-0.88755 0.32001,0.32 -1.33609,6.80161 -3.23216,12.64992 -1.1259,3.4728 -2.9402,9.1092 -4.03177,12.52535 -3.0105,9.42152 -5.80101,14.40374 -10.56191,18.85732 -2.66301,2.49112 -9.74328,8.15916 -10.17299,8.14389 -0.18879,-0.007 -1.69629,-0.52467 -3.35,-1.15103 z"
       id="path4281"
       inkscape:connector-curvature="0" />
    <path
       style="fill:#e9b96e;fill-opacity:1;stroke:#e9b96e;stroke-width:1;stroke-linecap:round;stroke-linejoin:bevel;stroke-miterlimit:4;stroke-opacity:1;stroke-dasharray:none;stroke-dashoffset:0"
       d="m 345.24121,432.54536 c -7.90578,-0.203 -21.58702,-0.75678 -25.70771,-1.04057 -4.4158,-0.30411 -13.51141,-1.72071 -16.53359,-2.57503 l -1.65019,-0.46647 0.82333,-0.43139 c 1.12843,-0.59124 1.08289,-1.6437 -0.11474,-2.65143 -1.25948,-1.05979 -2.08235,-1.47481 -7.18015,-3.62139 l -4.35979,-1.83582 -0.19271,-1.56434 c -0.13788,-1.1192 -0.39024,-1.72428 -0.88684,-2.12641 l -0.69413,-0.56207 0.82286,-4.47381 c 1.08888,-5.92015 2.59231,-16.18363 2.59911,-17.74341 0.005,-1.20791 -0.0403,-1.26496 -1.63358,-2.04447 -1.67458,-0.8193 -8.92201,-5.55418 -10.52393,-6.87548 l -0.88764,-0.73214 0.55641,-0.86684 c 1.10099,-1.71525 11.50752,-11.76506 14.51502,-14.01747 5.18718,-3.88482 14.9029,-9.28734 22.03314,-12.25173 1.7364,-0.72191 5.45725,-2.28633 8.26856,-3.4765 10.95411,-4.63741 21.61902,-7.94519 34.72795,-10.77105 8.41416,-1.81382 15.70266,-2.32161 24.65534,-1.71775 8.86301,0.59781 12.38111,1.24129 25.10636,4.59204 9.85988,2.59626 11.586,3.47376 16.38678,8.33052 3.06023,3.09591 8.37088,9.40154 8.68484,10.312 0.0636,0.18438 -0.3551,-0.0238 -0.9304,-0.46259 -0.57531,-0.43881 -1.1446,-0.79783 -1.26509,-0.79783 -0.12049,0 -1.18904,-0.75895 -2.37455,-1.68655 -6.8151,-5.33244 -16.53762,-7.06449 -25.89598,-4.61331 -4.73971,1.24145 -7.18466,2.67618 -12.0749,7.08571 -1.72146,1.55223 -3.28625,2.82225 -3.47731,2.82225 -0.25872,0 -0.29748,1.93771 -0.15186,7.59204 0.2159,8.38258 1.00023,24.06476 1.37975,27.58693 0.13364,1.24028 0.18259,2.32271 0.10878,2.4054 -0.19136,0.21436 -36.0781,0.18715 -36.29289,-0.0275 -0.60011,-0.59975 -1.36941,-11.9278 -1.58062,-23.2748 l -0.17349,-9.32092 -1.28013,-1.50338 c -2.43916,-2.86455 -6.16433,-4.38967 -13.22491,-5.41439 -10.97265,-1.5925 -22.48213,0.55047 -29.95288,5.57697 -2.70286,1.81855 -5.96191,5.21285 -7.51342,7.82523 -1.07206,1.8051 -1.31678,2.48666 -1.29961,3.61941 0.0572,3.77307 4.5069,9.02328 10.90826,12.8706 7.15965,4.30308 17.03545,4.78227 27.40106,1.32954 3.6832,-1.22685 7.80779,-3.09467 9.23118,-4.18035 l 0.99734,-0.76071 0,1.50586 c 0,1.39037 -0.0865,1.57025 -1.12753,2.34553 -2.07892,1.54818 -3.96752,3.73925 -4.95689,5.75081 -0.87152,1.77192 -0.97871,2.26527 -0.9571,4.40529 0.0253,2.50708 0.4575,3.81375 1.71696,5.19115 0.73704,0.80606 1.96713,0.85551 5.32456,0.21402 1.38047,-0.26376 6.10327,-0.54887 12.17734,-0.73513 5.45725,-0.16734 14.38729,-0.44085 19.84454,-0.6078 7.88452,-0.2412 10.44715,-0.4225 12.47801,-0.88277 1.40566,-0.31858 4.17393,-0.72808 6.15173,-0.91 1.9778,-0.18193 3.9397,-0.41205 4.35979,-0.5114 1.803,-0.42637 2.31796,-1.85087 1.21055,-3.34872 -0.33308,-0.45051 -0.72962,-1.58112 -0.8812,-2.51246 -0.53739,-3.30188 -3.0352,-6.73901 -6.30139,-8.67108 -2.51238,-1.48617 -2.47394,-1.42439 -2.37441,-3.81539 l 0.09,-2.16168 2.25506,0.99275 c 5.59027,2.46103 13.75914,3.21352 19.76736,1.82092 2.19657,-0.50913 5.17823,-1.96407 7.81468,-3.81329 4.56781,-3.20388 9.91242,-8.54552 11.90069,-11.89407 l 0.84599,-1.42479 -0.15242,9.92227 c -0.16833,10.95778 -0.45717,13.56599 -2.01843,18.22602 -1.1814,3.52625 -2.08215,5.56371 -3.46897,7.84666 -4.44901,7.32387 -11.41593,12.70869 -23.25801,17.97642 -8.37053,3.72348 -17.64756,5.75525 -30.37341,6.65211 -4.16429,0.29348 -24.96648,0.54377 -31.42052,0.37804 z m 27.0221,-11.12283 c 1.80529,-0.61512 2.41827,-1.49659 2.14901,-3.09029 -0.11192,-0.66245 -0.41154,-1.26987 -0.67655,-1.37157 -0.26162,-0.10039 -2.13175,-0.26646 -4.15584,-0.36905 -3.67393,-0.1862 -3.68151,-0.18519 -4.46302,0.59632 -0.95812,0.95812 -0.98476,1.50067 -0.11354,2.31233 0.97728,0.91048 4.10928,2.40662 5.03798,2.40662 0.44024,0 1.44012,-0.21796 2.22196,-0.48436 z"
       id="path4283"
       inkscape:connector-curvature="0" />
    <path
       style="fill:#e9b96e;fill-opacity:1;stroke:#e9b96e;stroke-width:1;stroke-linecap:round;stroke-linejoin:bevel;stroke-miterlimit:4;stroke-opacity:1;stroke-dasharray:none;stroke-dashoffset:0"
       d="m 344.11368,406.09654 c -0.41747,-0.41772 -0.21686,-2.67133 0.34573,-3.88385 0.30691,-0.66149 1.0256,-1.64716 1.59708,-2.19039 l 1.03905,-0.98769 0.33803,2.04005 c 0.63966,3.86039 0.70581,4.53449 0.45976,4.68522 -0.46814,0.2868 -3.55472,0.56172 -3.77965,0.33666 z"
       id="path4285"
       inkscape:connector-curvature="0" />
    <path
       style="fill:#e9b96e;fill-opacity:1;stroke:#e9b96e;stroke-width:1;stroke-linecap:round;stroke-linejoin:bevel;stroke-miterlimit:4;stroke-opacity:1;stroke-dasharray:none;stroke-dashoffset:0"
       d="m 393.8002,398.84139 0,-4.12298 1.4753,1.45311 c 1.70866,1.68297 2.939,3.78936 3.08384,5.27963 0.0975,1.00319 0.0559,1.05075 -1.10137,1.26055 -0.66149,0.11991 -1.71009,0.22582 -2.33023,0.23535 l -1.12754,0.0173 0,-4.12298 z"
       id="path4287"
       inkscape:connector-curvature="0" />
    <path
       style="fill:#e9b96e;fill-opacity:1;stroke:#e9b96e;stroke-width:1;stroke-linecap:round;stroke-linejoin:bevel;stroke-miterlimit:4;stroke-opacity:1;stroke-dasharray:none;stroke-dashoffset:0"
       d="m 506.17326,375.25042 c -5.49394,-8.34166 -9.57174,-12.38997 -15.76375,-15.64981 -5.50533,-2.89833 -8.83773,-3.52684 -18.88484,-3.56182 -3.4728,-0.0121 -6.53857,-0.11394 -6.81283,-0.22635 -0.41103,-0.16846 -0.15716,-0.62701 1.44492,-2.60977 1.06897,-1.32297 3.65759,-4.97617 5.7525,-8.11822 4.3886,-6.58225 6.23015,-9.19936 8.24825,-11.72197 1.04299,-1.30374 1.43977,-2.06432 1.43977,-2.75993 0,-0.92807 0.0579,-0.97191 1.72888,-1.30912 0.95088,-0.19189 5.17912,-1.20685 9.39609,-2.25548 8.84561,-2.19961 15.29832,-3.58809 15.5421,-3.3443 0.0931,0.0931 -0.24353,1.44452 -0.74807,3.00316 -1.49059,4.60478 -2.55595,9.71933 -2.58779,12.4234 -0.0259,2.20495 0.0453,2.53376 0.70002,3.23225 0.77918,0.8312 2.11413,1.02336 3.39121,0.48815 1.91373,-0.80202 12.66571,-4.84479 14.3462,-5.39421 1.06107,-0.34691 1.99706,-0.5629 2.07998,-0.47998 0.0829,0.0829 -0.19497,0.99627 -0.61753,2.02967 -0.42255,1.0334 -1.66448,4.1028 -2.75985,6.82089 -1.09536,2.7181 -2.28012,5.42417 -2.63281,6.0135 -0.76472,1.27785 -1.15146,5.16331 -0.5822,5.84923 0.76986,0.92763 -0.88397,5.16146 -6.27625,16.06734 l -3.17066,6.41266 -3.23334,-4.90929 z"
       id="path4289"
       inkscape:connector-curvature="0" />
    <path
       style="fill:#e9b96e;fill-opacity:1;stroke:#e9b96e;stroke-width:1;stroke-linecap:round;stroke-linejoin:round;stroke-miterlimit:4;stroke-opacity:1;stroke-dasharray:none;stroke-dashoffset:0"
       d="m 524.29311,351.54934 c 0,-0.52298 1.81993,-4.87597 4.23077,-10.11937 2.63846,-5.73842 2.92655,-7.15078 1.76091,-8.63265 -0.87622,-1.11393 -1.84549,-1.02515 -5.79259,0.5306 -2.99736,1.1814 -10.18744,3.54711 -13.20327,4.34419 -1.4378,0.38 -1.43961,0.3016 -0.0986,-4.25582 1.25201,-4.2548 1.81677,-7.57601 1.55145,-9.12353 -0.10916,-0.63667 -0.29508,-1.97143 -0.41315,-2.96614 -0.40823,-3.43909 -1.43746,-4.36566 -9.3467,-8.41439 -3.23054,-1.65371 -5.9142,-3.14435 -5.96369,-3.31252 -0.15922,-0.54113 12.86401,-7.35643 14.06413,-7.36003 0.30075,-9e-4 0.98275,1.08345 1.89392,3.01126 1.63797,3.46551 5.16843,8.89506 6.52736,10.03852 1.12679,0.94814 1.8209,0.96821 4.57306,0.13227 1.36014,-0.41313 3.00991,-0.65806 4.5568,-0.67652 l 2.42476,-0.0289 0.21832,3.15709 c 0.35396,5.11855 0.772,7.12374 1.62501,7.79472 1.23492,0.97139 3.56908,1.29531 10.7369,1.49 l 6.86741,0.18654 -3.95202,5.23715 c -5.32625,7.05828 -7.52681,10.55481 -9.89298,12.56608 -3.79143,3.22274 -9.96243,7.68596 -12.36783,6.40148 z"
       id="path4291"
       inkscape:connector-curvature="0"
       sodipodi:nodetypes="csssssssscssssccssscsscc" />
    <path
       style="fill:#e9b96e;fill-opacity:1;stroke:#e9b96e;stroke-width:1;stroke-linecap:round;stroke-linejoin:bevel;stroke-miterlimit:4;stroke-opacity:1;stroke-dasharray:none;stroke-dashoffset:0"
       d="m 479.01281,324.91683 c -0.61231,-1.46544 -0.28851,-2.66664 1.40074,-5.1963 2.31137,-3.46131 6.45022,-6.3565 9.08778,-6.35705 1.43945,-3e-4 5.34237,1.50163 9.9861,3.84289 5.41442,2.72981 5.33403,2.57882 1.7887,3.3595 -1.64527,0.36229 -4.07382,0.97894 -5.39679,1.37034 -4.03997,1.19522 -13.75371,3.72481 -15.10825,3.9344 -1.25945,0.19488 -1.28388,0.18162 -1.75828,-0.95378 z"
       id="path4293"
       inkscape:connector-curvature="0" />
    <path
       style="fill:#e9b96e;fill-opacity:1;stroke:#e9b96e;stroke-width:1.80000007;stroke-linecap:round;stroke-linejoin:bevel;stroke-miterlimit:4;stroke-opacity:1;stroke-dasharray:none;stroke-dashoffset:0"
       d="m 237.65271,645.6803 c -0.54418,-1.3642 -1.65538,-6.0316 -2.46932,-10.372 -2.14435,-11.4349 -2.14567,-61.75819 -0.002,-74.6603 1.50963,-9.08589 4.86871,-18.96452 6.3213,-18.5901 0.44845,0.11558 4.57491,1.54987 9.16989,3.18727 4.595,1.63741 14.32018,4.21279 21.61154,5.72306 7.29135,1.51026 13.75032,2.88636 14.35325,3.05799 0.73267,0.20856 -1.24225,4.9774 -5.95457,14.37856 -9.32975,18.61297 -12.24614,25.55709 -15.02948,35.7862 -1.78955,6.57681 -3.22711,9.80222 -6.2735,14.07551 -3.78047,5.30311 -3.98543,5.45321 -4.72333,3.45881 -0.42426,-1.1468 -0.54636,-3.83598 -0.27136,-5.97587 0.70531,-5.4883 -0.0616,-6.27039 -5.44803,-5.55596 -3.795,0.50335 -4.45333,0.86393 -4.42726,2.42462 0.0169,1.00841 0.58658,2.8058 1.26606,3.99431 2.57539,4.5045 0.84957,13.7503 -5.00144,26.7943 l -2.13237,4.7538 -0.98942,-2.4802 z"
       id="path4295"
       inkscape:connector-curvature="0" />
    <path
       style="fill:#e9b96e;fill-opacity:1;stroke:#e9b96e;stroke-width:1;stroke-linecap:round;stroke-linejoin:bevel;stroke-miterlimit:4;stroke-opacity:1;stroke-dasharray:none;stroke-dashoffset:0"
       d="m 293.99844,696.6662 c -3.67384,-0.3949 -11.2287,-1.4315 -16.78858,-2.3037 l -10.10886,-1.5856 0.59034,-4.0593 c 1.50265,-10.3325 8.27297,-34.9158 10.14305,-36.8299 0.36211,-0.3706 4.04557,0.1174 8.18548,1.0846 4.13991,0.9671 10.57769,2.117 14.3062,2.5555 3.7285,0.4384 10.47012,1.9563 14.98137,3.3733 l 8.20226,2.5763 -0.56457,3.0471 c -1.02885,5.5528 -3.91373,11.992 -10.01887,22.3627 -6.86574,11.6628 -5.92483,11.1767 -18.92782,9.779 z"
       id="path4297"
       inkscape:connector-curvature="0" />
    <path
       style="fill:#e9b96e;fill-opacity:1;stroke:#e9b96e;stroke-width:0.99999994;stroke-linecap:round;stroke-linejoin:bevel;stroke-miterlimit:4;stroke-opacity:1;stroke-dasharray:none;stroke-dashoffset:0"
       d="m 428.82444,704.7837 c -3.29704,-0.4183 -9.27026,-1.6211 -13.27382,-2.673 l -7.27919,-1.9124 -4.34009,-7.2799 c -2.38705,-4.0039 -5.95745,-10.307 -7.93423,-14.0068 l -3.59412,-6.7269 17.78254,0.5298 c 9.78039,0.2915 23.56306,0.2147 30.62816,-0.1704 7.06509,-0.3851 12.89979,-0.6796 12.96599,-0.6545 0.0662,0.025 -0.39219,3.7071 -1.01865,8.182 -0.62645,4.475 -1.4076,12.0867 -1.73588,16.915 l -0.59688,8.7786 -7.80461,-0.1105 c -4.29252,-0.06 -10.50218,-0.4527 -13.79922,-0.871 z"
       id="path4299"
       inkscape:connector-curvature="0" />
    <path
       style="fill:#000000;fill-opacity:1;stroke:#000000;stroke-width:1;stroke-linecap:round;stroke-linejoin:bevel;stroke-miterlimit:4;stroke-opacity:1;stroke-dasharray:none;stroke-dashoffset:0"
       d="m 407.38618,383.4275 c -3.84637,-3.5475 -4.68618,-4.48468 -5.52751,-6.16833 -1.36762,-2.73684 -1.9269,-5.72744 -1.78287,-9.53343 0.15094,-3.98861 0.53555,-4.83775 2.59188,-5.72236 2.31598,-0.99631 8.21912,-1.95325 10.88233,-1.76411 3.51232,0.24944 5.40836,0.75325 5.69827,1.51411 0.13566,0.35606 0.67887,2.44101 1.20713,4.63323 l 0.96047,3.98585 -0.36099,4.58338 c -0.21227,2.69506 -0.53875,4.93111 -0.79244,5.42738 -0.89556,1.75195 -5.55436,3.81645 -9.56885,4.24035 l -1.80405,0.1905 -1.50337,-1.38657 z"
       id="path4303"
       inkscape:connector-curvature="0" />
    <path
       style="fill:#000000;fill-opacity:1;stroke:#000000;stroke-width:1;stroke-linecap:round;stroke-linejoin:bevel;stroke-miterlimit:4;stroke-opacity:1;stroke-dasharray:none;stroke-dashoffset:0"
       d="m 318.48165,392.40279 c -1.11383,-0.69095 -4.40687,-5.76007 -5.24893,-8.07991 -1.46647,-4.04008 -1.48953,-7.66968 -0.0697,-10.97015 0.96293,-2.2384 1.55516,-2.61376 5.40309,-3.42461 8.53855,-1.79926 12.19722,-1.97085 14.16236,-0.66421 1.18705,0.78929 4.24582,5.22646 4.89207,7.09662 0.92945,2.68974 0.39546,6.28499 -1.65558,11.14658 -1.18591,2.81098 -1.98245,3.67052 -3.97823,4.29285 -3.89481,1.21448 -11.94014,1.5736 -13.50507,0.60283 z"
       id="path4305"
       inkscape:connector-curvature="0" />
    <path
       style="fill:#816647;fill-opacity:1;stroke:#000000;stroke-width:1;stroke-linecap:round;stroke-linejoin:bevel;stroke-miterlimit:4;stroke-opacity:1;stroke-dasharray:none;stroke-dashoffset:0"
       d="m 264.51397,391.67677 c -0.31056,-1.67662 -1.03966,-8.84788 -1.41592,-13.92672 -0.82505,-11.1368 0.43864,-17.83863 5.86794,-31.11986 6.30936,-15.43405 16.12363,-22.03897 39.70704,-26.72246 14.59023,-2.89752 19.36679,-2.72243 29.3158,1.0746 4.38681,1.67422 11.0598,4.75036 12.17734,5.61355 0.58175,0.44934 0.5229,0.54086 -1.80537,2.80769 -2.77132,2.69819 -6.51999,5.54574 -11.87831,9.02293 -3.6631,2.37711 -6.69857,4.07743 -20.22733,11.33033 -11.85653,6.3564 -17.91436,10.00086 -23.5179,14.14862 -1.81908,1.34649 -4.25455,3.06332 -5.41215,3.81519 -5.59361,3.63308 -14.79922,13.47787 -19.07803,20.40269 -0.97073,1.57103 -2.16621,3.23773 -2.65663,3.70378 l -0.89168,0.84736 -0.1848,-0.9977 z"
       id="path4309"
       inkscape:connector-curvature="0" />
    <path
       style="fill:#565248;fill-opacity:1;stroke:#000000;stroke-width:1;stroke-linecap:round;stroke-linejoin:bevel;stroke-miterlimit:4;stroke-opacity:1;stroke-dasharray:none;stroke-dashoffset:0"
       d="m 420.94426,344.64432 c -4.24665,-1.89209 -18.03613,-5.41143 -27.63124,-7.05204 -4.70553,-0.80456 -18.46102,-1.15012 -24.35467,-0.61183 -5.8108,0.53073 -18.40353,3.20161 -27.6614,5.86691 -2.05707,0.59222 -3.94736,1.07553 -4.20064,1.07404 -0.25328,-0.002 0.41896,-0.56692 1.49387,-1.2565 8.69003,-5.57479 12.05556,-8.21228 15.25297,-11.95337 5.17404,-6.05385 9.35087,-14.45217 12.27062,-24.67245 1.18334,-4.14218 1.68767,-5.01097 3.16595,-5.45387 1.40297,-0.42034 1.124,-0.46138 12.15664,1.7882 7.74017,1.57824 19.39322,3.37064 26.00838,4.00045 2.06714,0.19681 7.41163,0.35498 11.87666,0.35149 10.86315,-0.009 17.62345,-0.66159 25.94503,-2.50648 4.38743,-0.97269 6.70895,-1.12237 7.25237,-0.46759 0.26824,0.32321 0.10262,1.28601 -0.7288,4.23667 -2.35516,8.35835 -4.66886,12.8127 -10.41428,20.04974 -7.27945,9.16931 -15.7962,17.74936 -17.52753,17.6578 -0.33991,-0.018 -1.64668,-0.49101 -2.90393,-1.05117 z"
       id="path4311"
       inkscape:connector-curvature="0" />
    <path
       style="fill:#333333;fill-opacity:1;stroke:#000000;stroke-width:1;stroke-linecap:round;stroke-linejoin:bevel;stroke-miterlimit:4;stroke-opacity:1;stroke-dasharray:none;stroke-dashoffset:0"
       d="m 273.89166,422.34589 c -7.85944,-4.85962 -10.16636,-6.36252 -10.63725,-6.92991 -0.40106,-0.48325 -0.26346,-0.81405 4.3904,-10.55516 5.60072,-11.723 6.07732,-12.63195 7.18696,-13.70665 1.02205,-0.98986 1.14339,-1.02643 3.40566,-1.02643 2.22741,0 2.50356,0.0791 5.46982,1.56647 5.253,2.63405 5.07856,2.47366 5.07713,4.66812 -0.003,4.02604 -2.34353,17.69451 -3.17824,18.55761 -0.36066,0.37293 -0.74532,0.38243 -2.60577,0.0643 -2.726,-0.46607 -6.24176,-1.49722 -6.24176,-1.83067 0,-0.13803 1.20081,-1.54401 2.66847,-3.12439 1.46766,-1.58038 2.75887,-3.2336 2.86936,-3.67382 0.2667,-1.06264 -0.26371,-1.64492 -1.4984,-1.64492 -0.79843,0 -1.37254,0.34629 -2.86632,1.72888 -4.63893,4.29363 -6.88122,7.03347 -6.88439,8.41197 -0.002,0.99508 1.05793,1.50575 3.90723,1.88194 2.53843,0.33516 7.49336,1.46988 9.1156,2.08756 1.06631,0.406 0.97848,0.72442 -1.18319,4.28933 -0.89003,1.46779 -1.61824,2.79127 -1.61824,2.94107 0,0.1498 -0.10622,0.338 -0.23604,0.41824 -0.12983,0.0802 -3.34329,-1.77537 -7.14103,-4.12358 z"
       id="path4313"
       inkscape:connector-curvature="0" />
    <path
       style="fill:#333333;fill-opacity:1;stroke:#000000;stroke-width:1;stroke-linecap:round;stroke-linejoin:bevel;stroke-miterlimit:4;stroke-opacity:1;stroke-dasharray:none;stroke-dashoffset:0"
       d="m 269.7705,463.09261 c -1.64036,-2.16976 -3.78415,-5.59198 -4.58269,-7.31555 l -0.72254,-1.55954 0.69958,-0.83141 c 0.64142,-0.76229 0.71657,-1.21417 0.90379,-5.43516 0.11231,-2.53206 0.32902,-6.9039 0.48158,-9.71521 0.36924,-6.80413 0.35821,-12.68351 -0.0251,-13.3998 -0.70327,-1.31409 -3.01327,-0.48746 -6.30359,2.25573 -3.00883,2.5085 -10.95979,10.02604 -11.91181,11.26247 -1.33986,1.74015 -1.38224,4.29025 -0.0782,4.70414 0.97446,0.30929 2.57523,-0.96628 8.68255,-6.91861 l 5.86317,-5.71437 0.0949,2.55218 c 0.10732,2.88653 -0.70092,13.35041 -1.24169,16.07538 l -0.35658,1.79687 -1.26387,0.21462 c -0.69514,0.11803 -1.54849,0.36693 -1.89635,0.5531 -1.06562,0.5703 -6.56619,1.51317 -9.96069,1.70739 l -3.21568,0.18399 -0.20402,-1.47271 c -0.11221,-0.80999 -0.38471,-2.10832 -0.60556,-2.88517 -0.22085,-0.77684 -0.82506,-4.39492 -1.34269,-8.04015 -0.80079,-5.6393 -1.33367,-8.23096 -2.30565,-11.21343 -0.1221,-0.37469 0.0717,-0.61494 0.69079,-0.85623 1.77026,-0.69 10.28427,-2.4315 13.01804,-2.66279 2.74232,-0.232 2.86925,-0.27562 3.81942,-1.31244 1.10143,-1.20186 2.07229,-4.03313 1.74691,-5.09441 -0.60729,-1.98076 -1.95117,-1.95723 -4.19347,0.0734 l -1.66008,1.50338 -3.63709,0 c -3.10337,0 -3.61178,-0.0659 -3.46466,-0.44933 0.0948,-0.24713 0.79781,-2.83987 1.56217,-5.76163 0.76436,-2.92177 2.11321,-7.66515 2.99745,-10.54084 0.88423,-2.87569 1.97126,-6.7672 2.41562,-8.64779 l 0.80794,-3.41925 4.84911,2.98406 c 2.66701,1.64123 5.02161,3.09267 5.23244,3.22541 0.49807,0.3136 0.19004,1.17863 -2.64411,7.42529 -2.6702,5.88529 -3.30171,7.67846 -3.30171,9.37525 l 0,1.31323 5.63766,3.66588 c 3.10071,2.01624 7.91368,5.1926 10.69548,7.0586 4.78436,3.20927 5.76523,3.66277 6.94396,3.21045 0.26124,-0.10025 1.37361,-1.41946 2.47193,-2.93158 2.60732,-3.58967 3.38521,-4.40303 4.21102,-4.40303 0.75494,0 7.50849,2.53632 8.13247,3.05417 0.58683,0.48703 0.47639,1.69131 -0.18771,2.04673 -0.31987,0.17119 -1.03022,0.31422 -1.57854,0.31785 -1.29669,0.009 -2.5042,0.57423 -8.3349,3.90436 -5.99009,3.42117 -7.19571,4.72992 -5.93963,6.44771 0.32681,0.44693 0.68789,0.52398 1.90681,0.40685 1.13277,-0.10884 2.40785,-0.64846 5.16936,-2.18767 2.01613,-1.12375 3.76207,-1.94681 3.87987,-1.82901 0.35878,0.35878 -2.86001,6.23043 -4.68017,8.53747 -1.4701,1.86335 -1.81769,2.14781 -2.46627,2.01838 -2.04069,-0.40726 -10.93066,-1.11583 -11.84571,-0.94417 -1.33358,0.25018 -2.89065,1.68413 -2.89065,2.66209 0,1.13359 1.02803,2.20235 2.46913,2.56695 0.70912,0.17941 2.71243,0.40364 4.45182,0.49827 1.73938,0.0946 3.68228,0.31559 4.31755,0.491 1.31802,0.36392 1.31328,0.23024 0.15998,4.51145 -0.94132,3.49431 -1.2202,3.80666 -5.26544,5.89731 -5.34267,2.76118 -4.9536,2.69598 -6.20563,1.03987 z"
       id="path4315"
       inkscape:connector-curvature="0" />
    <path
       style="fill:#333333;fill-opacity:1;stroke:#000000;stroke-width:1;stroke-linecap:round;stroke-linejoin:bevel;stroke-miterlimit:4;stroke-opacity:1;stroke-dasharray:none;stroke-dashoffset:0"
       d="m 293.68205,440.30479 c 0.73373,-1.46872 1.49981,-3.18123 1.70241,-3.80557 0.54974,-1.69419 1.70388,-2.92395 2.74415,-2.92395 0.85202,0 9.94767,1.75131 10.15084,1.95448 0.0566,0.0566 -0.194,0.50466 -0.55698,0.99562 -0.36298,0.49095 -1.03489,1.9561 -1.49315,3.25589 l -0.8332,2.36325 -1.76558,0.19671 c -0.97107,0.10819 -3.90689,0.29509 -6.52406,0.41534 l -4.75848,0.21863 1.33405,-2.6704 z"
       id="path4317"
       inkscape:connector-curvature="0" />
    <path
       style="fill:#333333;fill-opacity:1;stroke:#000000;stroke-width:1;stroke-linecap:round;stroke-linejoin:bevel;stroke-miterlimit:4;stroke-opacity:1;stroke-dasharray:none;stroke-dashoffset:0"
       d="m 420.63474,449.1352 c -0.0706,-0.20671 -0.67415,-4.2734 -1.34134,-9.03709 -0.66718,-4.76369 -1.49138,-10.02698 -1.83155,-11.69621 -0.34017,-1.66924 -0.5608,-3.18531 -0.49029,-3.36906 0.0705,-0.18375 2.00098,-1.61798 4.28993,-3.18719 4.88538,-3.34922 8.06447,-6.37822 10.41046,-9.91897 1.82646,-2.75663 4.46141,-8.51801 5.77554,-12.62835 1.1421,-3.57224 1.29711,-3.82726 2.45884,-4.0452 0.55594,-0.1043 3.48234,-0.98206 6.5031,-1.95059 3.02077,-0.96853 5.58104,-1.67317 5.68947,-1.56586 0.10844,0.10731 0.293,2.1723 0.41014,4.58886 l 0.21297,4.39377 -0.86115,0.23346 c -0.47363,0.12841 -2.82305,0.25435 -5.22093,0.27988 -3.86488,0.0411 -4.50414,0.12204 -5.63146,0.71271 -0.69942,0.36646 -1.47741,1.06416 -1.72888,1.55044 -0.97373,1.88299 -0.39169,6.29853 1.33109,10.09803 0.94927,2.09359 1.80521,2.84298 3.24718,2.84298 1.56012,0 1.77128,-0.96935 1.00135,-4.59674 -0.89338,-4.20897 -0.85162,-4.85027 0.35252,-5.41307 1.68804,-0.78897 9.94729,-1.98349 10.25638,-1.48336 0.16394,0.26525 -0.16579,2.34319 -1.77715,11.19943 l -0.52097,2.86336 -4.46696,0.48415 c -5.30014,0.57446 -5.97187,0.87606 -5.97187,2.68132 0,1.11039 0.0917,1.24942 1.10238,1.67172 0.76898,0.3213 2.63319,0.51239 6.16384,0.63184 3.11086,0.10524 5.06145,0.28883 5.06145,0.47638 0,0.358 -2.96547,6.01021 -5.35253,10.20198 -1.2754,2.23966 -1.81653,2.93017 -2.29273,2.92563 -0.34281,-0.003 -2.78816,-1.12793 -5.4341,-2.49924 l -4.8108,-2.49329 -0.30067,-5.8749 c -0.3083,-6.02377 -0.50758,-6.86644 -1.62384,-6.86644 -1.57186,0 -8.43215,4.18872 -11.83136,7.22393 -1.43253,1.27912 -1.72889,1.71102 -1.72889,2.51964 0,1.0374 1.01142,2.28343 1.85349,2.28343 0.6241,0 2.53232,-1.41379 5.79641,-4.29451 2.73318,-2.41216 3.90997,-3.18837 4.27716,-2.82118 0.29344,0.29343 -0.43555,6.30072 -1.10066,9.07007 -0.31773,1.32297 -0.72885,4.0967 -0.9136,6.16384 -0.18475,2.06714 -0.42733,4.49493 -0.53906,5.3951 l -0.20315,1.63667 -4.51012,0.98313 c -5.08254,1.10791 -5.52954,1.15719 -5.70964,0.6295 z"
       id="path4319"
       inkscape:connector-curvature="0" />
    <path
       style="fill:#fdca01;fill-opacity:1;stroke:#fdca01;stroke-width:2.5;stroke-linecap:round;stroke-linejoin:bevel;stroke-miterlimit:4;stroke-opacity:1;stroke-dasharray:none;stroke-dashoffset:0"
       d="m 411.4267,666.2 c -11.47023,-0.3106 -31.14996,-1.5117 -38.18571,-2.3305 -9.02455,-1.0504 -33.81847,-5.147 -43.41906,-7.174 -3.97711,-0.8397 -9.55736,-2.3328 -12.40053,-3.318 -6.80471,-2.3577 -9.12593,-2.8454 -17.14136,-3.6013 -4.52134,-0.4264 -9.03767,-1.3423 -13.78682,-2.7961 -3.88454,-1.1891 -10.55675,-3.0768 -14.82714,-4.1949 -4.27039,-1.118 -7.86276,-2.1312 -7.98305,-2.2515 -0.34854,-0.3485 3.89491,-16.4366 4.81933,-18.2714 1.10568,-2.1946 1.4206,-3.6382 2.19906,-10.0803 1.27418,-10.54443 4.07973,-19.04722 12.50038,-37.88505 2.80904,-6.2841 5.72547,-13.18459 6.48095,-15.33442 l 1.37359,-3.90877 2.90661,-0.47797 c 1.59864,-0.26288 3.75864,-0.60825 4.79999,-0.76749 2.82316,-0.4317 4.52589,-2.08276 7.51462,-7.28657 3.76319,-6.55226 4.85956,-9.3683 8.02556,-20.61358 3.08591,-10.96083 3.22724,-12.94888 0.92055,-12.94888 -1.37937,0 -1.79185,0.79891 -5.53491,10.72024 -3.48893,9.24775 -9.66263,22.36402 -11.34921,24.11186 -1.59442,1.65231 -28.55654,-2.9851 -42.36177,-7.28613 -7.07064,-2.20285 -15.2442,-6.38513 -18.9295,-9.68592 l -3.23577,-2.89815 4.38963,-11.6904 c 5.68805,-15.14836 8.8081,-21.50317 16.99271,-34.61016 3.69404,-5.9157 7.43181,-12.04389 8.30615,-13.61819 l 1.5897,-2.86238 2.16472,2.41136 c 1.1906,1.32625 2.54678,2.41136 3.01373,2.41136 1.31074,0 13.20081,-5.95047 14.72376,-7.36861 0.74417,-0.69296 1.36533,-1.82163 1.38035,-2.50814 0.015,-0.68652 0.62739,-3.77125 1.3608,-6.85495 l 1.33348,-5.60674 6.60709,-0.23643 c 9.97755,-0.35704 12.79779,-0.79554 14.09892,-2.19214 1.29878,-1.39407 2.73275,-6.65202 2.19579,-8.05132 -0.28558,-0.7442 0.0338,-0.89477 1.57952,-0.7447 1.8507,0.17969 1.98529,0.37122 3.00481,4.27597 1.31639,5.04167 2.55095,7.50224 6.19931,12.35562 6.65576,8.85413 12.15346,13.61367 24.17449,20.92868 8.24862,5.01943 19.39114,10.63072 23.57988,11.87464 5.38988,1.60062 9.76642,1.29305 14.06545,-0.98847 4.56724,-2.42387 11.29285,-8.65537 14.2428,-13.19641 1.25928,-1.93848 3.28484,-6.63551 4.6679,-10.8243 2.68726,-8.13874 6.7405,-26.14518 6.7405,-29.94456 0,-1.68929 0.25732,-2.41128 0.85939,-2.41128 0.91917,0 1.2111,1.17848 3.35172,13.53038 0.68783,3.9689 1.52049,8.23097 1.85035,9.47125 0.59613,2.24147 0.61865,2.25504 3.73366,2.25085 3.23186,-0.004 11.64633,-1.78459 14.43015,-3.05299 1.89531,-0.86356 2.10268,-1.66318 1.53744,-5.92861 -0.23855,-1.80014 -0.30895,-3.47489 -0.15644,-3.72166 0.15251,-0.24676 1.72795,0.0505 3.50098,0.66045 4.61408,1.58748 12.2478,3.20845 13.2673,2.81723 1.22887,-0.47156 3.18037,-4.53271 5.53415,-11.51677 2.69368,-7.99263 3.1315,-11.66741 1.55937,-13.0885 -1.16337,-1.05162 -1.16117,-1.10688 0.23618,-5.9313 2.27092,-7.84045 1.74387,-12.70888 -1.49709,-13.82894 -0.36173,-0.125 -0.9296,-3.17346 -1.27426,-6.84036 -0.64354,-6.84691 -1.46808,-8.6217 -3.61846,-7.78862 -2.57169,0.99631 -12.92946,3.79643 -13.16647,3.55943 -0.15045,-0.15046 0.20231,-0.79938 0.78392,-1.44205 0.58161,-0.64268 0.87997,-1.4557 0.66303,-1.80672 -0.21694,-0.35102 1.44784,-2.95034 3.69953,-5.77626 2.25168,-2.82591 5.47166,-7.35905 7.15551,-10.07363 1.85985,-2.99833 3.72518,-5.2608 4.75232,-5.76412 2.80386,-1.37396 18.93608,-1.66567 23.74218,-0.42931 10.08679,2.59481 16.32742,9.29422 24.9282,26.76079 3.38554,6.87541 3.85853,8.21708 3.20938,9.10382 -0.41873,0.57201 -2.96442,3.72336 -5.65706,7.00301 -12.21436,14.87712 -31.77134,45.85821 -35.63593,56.45248 -2.6564,7.28219 -7.48868,26.51284 -10.94465,43.55563 -1.71025,8.43393 -3.52536,17.36398 -4.03359,19.84454 -0.73515,3.58809 -0.93356,9.42767 -0.97053,28.56412 -0.0562,29.10266 0.0314,29.88682 6.28016,56.22624 1.60855,6.7802 4.44053,18.9576 6.29329,27.0608 1.85275,8.1032 3.87359,16.2214 4.49074,18.0405 1.53816,4.5338 2.17595,8.1012 1.35797,7.5957 -0.3522,-0.2177 -3.2596,0.026 -6.46089,0.5408 -5.34858,0.8607 -35.59414,2.2118 -43.5786,1.9467 -1.81908,-0.06 -5.87819,-0.1795 -9.02025,-0.2645 z m 28.17129,-151.6452 c 1.4308,-1.43079 11.05558,-15.43251 12.34052,-17.95245 0.53973,-1.05849 0.98133,-2.36598 0.98133,-2.90554 0,-1.16774 -2.99969,-5.03064 -8.39408,-10.80959 -2.16347,-2.3177 -5.32727,-5.82135 -7.03066,-7.78588 -2.67004,-3.07937 -3.27062,-3.49333 -4.35566,-3.00219 -2.35201,1.06461 -22.92532,20.24425 -23.29493,21.71688 -0.46288,1.84426 1.89846,5.32795 6.22557,9.18464 3.93857,3.5104 19.13983,12.66468 21.03048,12.66468 0.76279,0 1.88663,-0.49975 2.49743,-1.11055 z"
       id="path4323"
       inkscape:connector-curvature="0" />
    <path
       style="fill:#666666;fill-opacity:1;stroke:#666666;stroke-width:2.20000005;stroke-linecap:round;stroke-linejoin:round;stroke-miterlimit:4;stroke-opacity:1;stroke-dasharray:none;stroke-dashoffset:0;display:inline"
       d="M 443.84293,737.5145 C 432.74359,730.01 421.62606,719.8381 416.21971,712.2408 l -2.71059,-3.8091 3.82701,0.8645 c 8.33557,1.8829 28.837,2.509 31.71369,0.9684 2.79947,-1.4992 2.86229,-1.3548 2.91311,6.6967 0.0286,4.5258 0.8385,12.6475 1.79986,18.0481 0.96136,5.40067 1.67398,9.89867 1.58359,9.99557 -0.0904,0.097 -5.26694,-3.2738 -11.50345,-7.49047 z"
       id="path4395"
       inkscape:connector-curvature="0" />
    <path
       style="fill:#666666;fill-opacity:1;stroke:#666666;stroke-width:2.20000005;stroke-linecap:round;stroke-linejoin:round;stroke-miterlimit:4;stroke-opacity:1;stroke-dasharray:none;stroke-dashoffset:0;display:inline"
       d="m 262.05188,733.7595 c 0.43249,-3.0024 1.50726,-12.02 2.38837,-20.039 l 1.60203,-14.5802 5.16673,0.7583 c 2.84171,0.417 10.80255,1.4487 17.69078,2.2926 6.88821,0.844 12.52403,1.8978 12.52403,2.342 0,0.4443 -3.96645,5.1066 -8.81434,10.3609 -7.74205,8.3909 -27.62604,24.3244 -30.35537,24.3244 -0.54371,0 -0.6347,-2.4566 -0.20223,-5.459 z"
       id="path4397"
       inkscape:connector-curvature="0" />
    <path
       style="fill:#fdd99b;fill-opacity:1;stroke:#fdd99b;stroke-width:2.20000005;stroke-linecap:round;stroke-linejoin:round;stroke-miterlimit:4;stroke-opacity:1;stroke-dasharray:none;stroke-dashoffset:0;display:inline"
       d="m 431.85683,505.01728 c -4.61008,-2.44167 -13.83105,-9.87925 -13.83105,-11.15605 0,-0.53642 3.42726,-3.98427 7.61613,-7.66189 l 7.61613,-6.68659 6.2679,7.1207 6.2679,7.12069 -4.90172,6.63522 c -2.69594,3.64937 -5.01995,6.61354 -5.16446,6.58706 -0.1445,-0.0265 -1.88638,-0.9081 -3.87083,-1.95914 z"
       id="path4399"
       inkscape:connector-curvature="0" />
  </g>
  <g
     inkscape:label="Trazos"
     inkscape:groupmode="layer"
     id="layer1"
     style="display:inline">
    <path
       style="fill:#000000"
       d="m 367.50998,420.89362 c -3.13777,-1.6992 -3.50924,-2.3204 -2.1815,-3.6481 0.61259,-0.6126 1.53233,-0.7206 4.47807,-0.5258 2.03893,0.1349 3.90633,0.3684 4.14979,0.5188 0.24345,0.1505 0.44265,0.9361 0.44265,1.7459 0,1.2149 -0.29833,1.5969 -1.70645,2.1853 -2.18935,0.9147 -3.07005,0.8678 -5.18256,-0.2761 z m -26.05002,-11.1897 c -1.51249,-1.2249 -2.18683,-4.6662 -1.48642,-7.5858 0.60191,-2.5091 3.33158,-6.0644 5.57991,-7.2677 1.06018,-0.5674 1.28949,-1.0389 1.28949,-2.6515 0,-1.8288 -0.0582,-1.9101 -0.86112,-1.2031 -1.4829,1.3058 -5.59337,3.1526 -10.70258,4.8087 -8.67219,2.8109 -18.11213,2.5585 -24.26128,-0.6487 -6.33423,-3.3037 -11.2565,-8.1425 -12.49791,-12.2859 -0.53843,-1.7971 -0.47119,-2.1583 0.86516,-4.646 2.82723,-5.2631 9.35885,-10.20297 16.03314,-12.12576 8.49136,-2.44629 14.7058,-2.80103 23.22346,-1.3257 6.12131,1.06026 9.17211,2.43417 11.33266,5.10356 l 1.51421,1.8709 -0.13598,7.2303 c -0.11593,6.1644 1.04655,24.2288 1.61875,25.1546 0.15702,0.2541 23.09238,0.3236 33.67516,0.1021 l 3.1443,-0.066 -0.31176,-2.8294 c -0.52148,-4.7327 -1.81127,-34.14242 -1.51814,-34.61669 0.15074,-0.24391 0.48429,-0.44347 0.74122,-0.44347 0.25692,0 1.84924,-1.4025 3.53848,-3.11667 5.13406,-5.20981 11.74045,-7.68248 20.57361,-7.70038 6.17383,-0.0125 12.75834,2.28834 16.86343,5.89265 0.92702,0.81394 1.89873,1.47989 2.15936,1.47989 0.26063,0 0.87465,0.44287 1.3645,0.98414 0.48986,0.54128 1.2549,0.98415 1.70011,0.98415 2.41482,0 2.61575,3.21796 0.46675,7.47508 -2.6439,5.2376 -12.64093,13.9245 -18.1828,15.7999 -5.78825,1.9589 -15.47592,1.4379 -21.01249,-1.1299 l -3.07545,-1.4263 0,2.6473 c 0,2.2119 0.16129,2.6986 0.9804,2.9586 0.53923,0.1711 2.0613,1.1656 3.38238,2.2098 2.60569,2.0597 4.49452,5.3074 4.49452,7.7279 0,0.8287 0.33215,1.7823 0.73811,2.1192 1.11728,0.9273 0.8951,2.4251 -0.43474,2.9307 -0.64507,0.2452 -3.02547,0.5616 -5.28978,0.7031 -2.26431,0.1415 -5.11337,0.5829 -6.33125,0.9809 -1.6907,0.5526 -6.34515,0.7994 -19.68289,1.0438 -19.87215,0.3641 -20.81113,0.4081 -24.84965,1.1642 -3.70385,0.6934 -3.38954,0.7139 -4.64487,-0.3027 z m 6.24599,-3.5675 c 0.60743,0 0.67963,-0.4628 0.40306,-2.5834 -0.18532,-1.4209 -0.46255,-3.0946 -0.61606,-3.7194 l -0.27911,-1.136 -1.14187,1.0727 c -1.64028,1.541 -2.6367,3.9254 -2.32052,5.5531 0.2441,1.2567 0.42415,1.371 1.74336,1.1072 0.80913,-0.1618 1.80415,-0.2942 2.21114,-0.2942 z m 51.03424,-3.5102 c 0.11441,-0.1144 0.0156,-1.061 -0.21947,-2.1034 -0.39779,-1.7638 -3.55055,-5.7041 -4.564,-5.7041 -0.22962,0 -0.37545,1.9074 -0.32407,4.2387 l 0.0934,4.2386 2.40304,-0.2309 c 1.32167,-0.127 2.49665,-0.3245 2.61107,-0.4389 z m -66.67772,-10.5618 c 2.67165,-0.9305 2.69826,-0.9599 4.34674,-4.8036 1.87349,-4.3683 2.46925,-8.2913 1.62889,-10.726 -0.31231,-0.9047 -1.50368,-3.0111 -2.64749,-4.6808 -2.1838,-3.18773 -2.96637,-3.6072 -6.7298,-3.6072 -2.2907,0 -12.65973,1.8487 -13.8041,2.4612 -1.18889,0.6363 -2.45273,3.4927 -2.7844,6.2931 -0.3976,3.3572 0.58993,7.4212 2.54997,10.4938 4.01364,6.292 3.18379,5.8279 10.0774,5.636 3.02299,-0.084 5.62447,-0.461 7.36279,-1.0665 z m -21.92089,-4.4329 c -1.67582,-3.3862 -2.40648,-8.3397 -1.70952,-11.5895 0.29795,-1.3893 0.45753,-2.6102 0.35463,-2.7131 -0.28049,-0.2805 -4.39596,3.2739 -6.1802,5.3376 -2.00561,2.3197 -1.72261,3.6485 1.35814,6.377 2.3147,2.05 7.04333,5.4243 7.27576,5.1918 0.0698,-0.07 -0.42463,-1.2415 -1.09881,-2.6038 z m 32.76046,0.2323 3.44883,-1.5421 0,-6.2908 c 0,-3.46 -0.13803,-6.6505 -0.30672,-7.0901 -0.37144,-0.968 -3.24079,-2.4792 -5.59815,-2.9484 -0.94724,-0.1886 -2.1504,-0.4649 -2.6737,-0.61398 -0.76271,-0.21734 -0.63024,0.13438 0.66783,1.77338 2.06071,2.6018 3.48209,6.3318 3.48209,9.1376 0,2.0896 -1.55369,7.1972 -2.58607,8.5014 -0.71249,0.9001 -0.25363,0.7808 3.56589,-0.927 z m 74.13334,-4.6423 c 3.046,-1.4665 3.82144,-2.3197 3.94404,-4.3397 0.0511,-0.8424 0.24582,-3.1932 0.43266,-5.224 0.2782,-3.0239 0.15122,-4.32527 -0.70138,-7.18811 -0.57259,-1.92266 -1.04107,-3.95009 -1.04107,-4.5054 0,-0.86988 -0.49387,-1.0931 -3.56753,-1.61247 -3.02829,-0.5117 -4.26158,-0.48001 -8.15936,0.20971 -7.54185,1.33454 -8.01645,1.83095 -8.00405,8.37193 0.0117,6.17324 2.0072,10.52034 6.2171,13.54364 1.20789,0.8674 2.19618,1.8134 2.19618,2.1022 0,0.8954 5.92904,-0.032 8.68341,-1.3578 z m -14.9329,0.1565 c -3.66452,-2.5992 -5.7281,-7.9353 -5.47445,-14.15614 0.0881,-2.16139 0.041,-3.92928 -0.10461,-3.92865 -0.14567,5e-4 -1.11323,1.01608 -2.15013,2.25655 l -1.88527,2.25534 0.086,5.4023 c 0.0473,2.9713 0.19861,5.6958 0.33625,6.0545 0.30348,0.7909 7.23322,3.1848 9.28388,3.2072 l 1.46928,0.016 -1.56094,-1.1071 z m 28.4567,-12.1521 c 0.77674,-1.2032 1.41225,-2.35675 1.41225,-2.56345 0,-0.77811 -2.80961,-2.99829 -5.60447,-4.4287 -2.43061,-1.24398 -2.83717,-1.33759 -2.52046,-0.58036 2.0941,5.00674 2.30669,5.94071 2.13444,9.37701 l -0.17811,3.5534 1.67206,-1.5851 c 0.91962,-0.8718 2.30756,-2.5696 3.08429,-3.7728 z"
       id="path4194"
       inkscape:connector-curvature="0" />
    <path
       style="fill:#000000"
       d="m 268.50454,468.49721 c -1.88232,-2.0686 -6.90073,-8.9725 -7.84476,-10.7922 -0.51699,-0.9965 -1.14688,-1.9397 -1.39975,-2.096 -0.25287,-0.1563 -2.415,0.1746 -4.80474,0.7353 -4.11427,0.9653 -7.52095,1.0655 -11.65898,0.3432 -1.87793,-0.3278 -2.11323,-0.8199 -2.74956,-5.7495 -0.62162,-4.8155 -1.48912,-9.7947 -3.02596,-17.368 -0.82036,-4.0426 -0.93815,-5.4405 -0.50263,-5.9653 0.31285,-0.3769 1.91234,-0.8373 3.55443,-1.0231 2.48413,-0.2811 2.93394,-0.4725 2.6779,-1.1397 -0.16925,-0.4411 -0.4209,-1.995 -0.55923,-3.453 -0.19268,-2.0311 -0.0192,-3.1314 0.74198,-4.7048 0.5464,-1.12952 1.89098,-5.48588 2.98795,-9.68079 3.68167,-14.07908 4.42869,-15.95563 6.79945,-17.08063 1.7524,-0.83157 1.75667,-0.83075 5.17629,1.00199 l 3.42244,1.83424 -0.34214,-4.31848 c -0.18817,-2.37516 -0.66196,-6.1743 -1.05285,-8.44253 -0.81564,-4.73289 -0.91454,-13.52229 -0.20719,-18.41446 0.51565,-3.56638 3.52732,-13.30378 5.8772,-19.00229 1.75819,-4.26366 5.19639,-9.63905 8.27045,-12.9303 8.77408,-9.394 20.47632,-14.24603 42.67523,-17.69418 5.5495,-0.862 6.98363,-0.92044 10.82559,-0.44115 6.36703,0.7943 10.42083,2.05145 18.4741,5.72913 3.91251,1.78672 7.48722,3.36019 7.94378,3.49659 0.62929,0.18801 1.2385,-0.56748 2.51813,-3.12277 2.51607,-5.02431 5.14527,-11.92991 5.51603,-14.48786 0.18015,-1.24289 0.80936,-3.11875 1.39825,-4.16859 0.87802,-1.56527 1.43858,-1.98154 3.11476,-2.31302 2.04794,-0.405 2.69101,-0.32098 25.98849,3.3955 17.50565,2.79255 42.5,1.93882 54.22992,-1.85232 4.15149,-1.34178 6.78523,-0.85563 8.41277,1.55288 0.91152,1.34892 1.10863,2.17509 0.93599,3.92309 -0.24779,2.50879 -2.70111,10.82921 -4.27392,14.49496 -2.99349,6.97692 -17.39921,25.02807 -22.7684,28.53005 -0.74426,0.48543 -1.3532,1.10164 -1.3532,1.36934 0,0.26772 1.79597,2.48756 3.99105,4.933 4.19132,4.66936 8.05671,10.20743 8.52971,12.2208 0.15389,0.65508 0.0931,4.95541 -0.13504,9.55628 -0.22817,4.60088 -0.35205,8.44583 -0.2753,8.54434 0.0768,0.0985 0.7386,-0.29209 1.47077,-0.86801 1.75709,-1.38213 2.04602,-0.97097 0.67285,0.95748 -0.90268,1.26769 -0.98193,1.63307 -0.42843,1.97516 0.53205,0.32882 0.31308,0.79741 -1.01093,2.16344 -0.92954,0.95905 -1.41408,1.74372 -1.07676,1.74372 0.9726,0 11.73753,-2.94248 13.57748,-3.71126 1.492,-0.62339 1.76863,-0.60728 2.65009,0.1544 0.83365,0.72037 1.05869,1.82882 1.47119,7.2464 0.26784,3.51777 0.38406,6.56246 0.25828,6.76599 -0.12579,0.20353 0.32212,0.37006 0.99536,0.37006 1.794,0 2.58638,1.0783 2.93108,3.98875 0.308,2.6006 -0.5771,7.16073 -2.37887,12.25622 -0.7802,2.20643 -0.7799,2.20833 0.53721,3.26173 l 1.31787,1.0539 -0.60102,4.1104 c -0.63021,4.31 -4.99481,16.3245 -6.61979,18.2224 -0.96656,1.1288 -1.45274,1.0999 -8.1622,-0.4862 -2.30044,-0.5438 -5.25278,-1.4506 -6.56076,-2.0151 -1.30797,-0.5645 -2.58121,-1.0263 -2.82941,-1.0263 -0.56139,0 -0.54938,2.9685 0.0239,5.9048 0.78167,4.0039 0.30379,4.3953 -7.6102,6.2336 -7.96453,1.8499 -10.11803,2.0001 -11.16516,0.7785 -0.46062,-0.5374 -1.43959,-5.2387 -2.60394,-12.5048 -1.0262,-6.4039 -2.03895,-11.9237 -2.25055,-12.266 -0.29115,-0.4711 -1.69556,-0.063 -5.77379,1.6782 -5.26681,2.2486 -14.89652,5.0162 -22.5447,6.4796 -5.67349,1.0855 -30.63238,1.4721 -50.698,0.7852 -9.23816,-0.3162 -17.98474,-0.7648 -19.43685,-0.9968 -2.85656,-0.4563 -3.38847,-0.3343 -2.48438,0.5698 0.79177,0.7917 0.73236,2.0372 -0.24508,5.138 -1.3118,4.1615 -2.02929,4.5796 -8.31948,4.8485 -2.95311,0.1262 -6.76336,0.3613 -8.46724,0.5225 -2.11978,0.2006 -3.32876,0.1015 -3.82894,-0.3136 -0.59385,-0.4928 -0.86364,-0.4314 -1.43806,0.3275 -0.3889,0.5138 -0.71412,1.5234 -0.72273,2.2435 -0.009,0.7202 -0.45566,2.7131 -0.99345,4.4287 -0.53778,1.7156 -0.98065,3.8245 -0.98414,4.6865 -0.0134,3.3081 -0.55254,3.8238 -7.84102,7.4995 -3.79649,1.9146 -7.35907,3.4811 -7.91683,3.4811 -0.55775,0 -1.46746,-0.4982 -2.02157,-1.1072 z m 6.80895,-5.7935 c 2.106,-1.089 4.16124,-2.2515 4.5672,-2.5834 0.60927,-0.4981 1.47108,-3.1164 2.53993,-7.7168 0.19662,-0.8463 -2.61001,-1.4053 -7.33763,-1.4614 -3.18952,-0.038 -5.04374,-1.0462 -5.04374,-2.7428 0,-1.3246 1.87537,-2.7064 3.6729,-2.7064 0.93754,0 3.96587,0.2571 6.72963,0.5714 l 5.02501,0.5714 1.63581,-1.9246 c 1.94548,-2.289 5.44718,-8.8564 4.97428,-9.3293 -0.18263,-0.1827 -2.21963,0.8255 -4.52667,2.2403 -4.3279,2.654 -6.19157,2.9783 -6.87537,1.1964 -0.50589,-1.3184 0.59753,-2.6159 3.53001,-4.151 1.54599,-0.8094 4.23498,-2.3584 5.97554,-3.4423 2.22723,-1.387 3.71145,-1.9707 5.01058,-1.9707 1.44325,0 1.9175,-0.2255 2.17401,-1.0337 0.18044,-0.5685 0.14,-1.2163 -0.0899,-1.4395 -0.64359,-0.6248 -7.96188,-3.4329 -8.91899,-3.4222 -0.50344,0.01 -1.93453,1.606 -3.52009,3.9366 -2.8935,4.253 -3.64517,4.6273 -5.86167,2.9189 -1.2289,-0.9472 -13.49078,-9.02 -18.22225,-11.997 -2.10435,-1.32397 -2.14571,-1.40056 -1.86441,-3.45288 0.15823,-1.15438 1.71833,-5.06477 3.46689,-8.68974 1.74856,-3.62498 3.01326,-6.76301 2.81045,-6.97341 -0.20282,-0.2104 -2.70867,-1.78794 -5.56858,-3.50564 l -5.19984,-3.12309 -0.58985,3.01356 c -0.32441,1.65747 -1.45019,5.67076 -2.50171,8.91844 -1.05153,3.24767 -2.43995,8.11919 -3.08538,10.82559 -0.64542,2.70637 -1.33813,5.30817 -1.53935,5.78187 -0.33114,0.7794 0.013,0.8611 3.62663,0.8611 3.68447,0 4.07764,-0.098 5.09639,-1.2755 1.5851,-1.8314 2.73951,-2.3614 3.59572,-1.6508 0.98544,0.8178 0.88111,2.6235 -0.28348,4.9063 -1.01024,1.9803 -1.87826,2.4233 -4.6687,2.3827 -0.81192,-0.012 -3.13696,0.3401 -5.16676,0.782 -9.18563,1.9995 -9.48404,2.1185 -8.44727,3.3677 0.6579,0.7927 1.75453,6.4749 2.53571,13.1388 0.30139,2.571 0.75157,5.1175 1.0004,5.6588 0.24883,0.5413 0.51454,1.7592 0.59048,2.7064 l 0.13807,1.7223 3.19847,-0.092 c 3.95879,-0.1144 9.14525,-1.0428 10.96306,-1.9624 0.7522,-0.3805 1.56728,-0.5685 1.81127,-0.4177 0.24399,0.1508 0.57888,0.055 0.7442,-0.2121 0.8537,-1.3814 2.30784,-20.6896 1.55813,-20.6891 -0.23299,10e-5 -3.299,2.8915 -6.81337,6.4252 -6.99905,7.0376 -8.35624,7.7309 -8.67057,4.4291 -0.14875,-1.5624 0.17347,-2.0152 4.15654,-5.8401 10.95993,-10.5249 13.663,-12.3385 14.91195,-10.0048 0.32562,0.6084 0.30738,4.1868 -0.0545,10.7026 -0.29905,5.3837 -0.57242,11.4127 -0.6075,13.3977 -0.05,2.8307 -0.24299,3.7095 -0.89458,4.0742 -0.67791,0.3793 -0.73731,0.7112 -0.32282,1.8036 0.84891,2.2371 5.5671,9.4079 6.20708,9.4337 0.32976,0.013 2.32265,-0.8669 4.42864,-1.9559 z m 152.18887,-14.251 3.69054,-0.8054 0.32121,-5.1368 c 0.17667,-2.8253 0.67009,-6.3547 1.09648,-7.8432 0.95292,-3.3266 1.59768,-9.8415 0.974,-9.8415 -0.7646,0 -2.75203,1.5151 -5.91662,4.5105 -1.67026,1.5809 -3.48638,2.8706 -4.04228,2.8706 -1.15742,0 -2.16306,-1.5363 -1.73531,-2.6511 0.49679,-1.2946 6.18865,-5.6493 9.86627,-7.5485 4.73931,-2.4475 4.90231,-2.2834 4.96277,4.9966 0.0258,3.108 0.16307,5.8388 0.30503,6.0685 0.14196,0.2297 2.59452,1.6139 5.45013,3.0759 5.05621,2.5887 5.21133,2.6331 5.92985,1.6958 0.71186,-0.9286 7.14604,-12.7735 7.14604,-13.1553 0,-0.1033 -2.4791,-0.2408 -5.50911,-0.3056 -6.08842,-0.1303 -7.28476,-0.5001 -7.28476,-2.252 0,-1.6572 0.61006,-1.9143 5.86777,-2.4721 l 4.63758,-0.4921 0.92407,-4.67468 c 0.50824,-2.57108 1.09681,-5.83721 1.30793,-7.25807 0.35885,-2.41496 0.31707,-2.58239 -0.64093,-2.56818 -2.37667,0.0352 -8.43543,1.00844 -9.66418,1.55234 -1.19561,0.52923 -1.30648,0.78927 -1.10254,2.58588 0.1247,1.09862 0.43012,2.63947 0.6787,3.42411 1.05107,3.31773 0.13177,4.9169 -2.21252,3.84877 -0.77576,-0.35346 -1.53054,-1.60555 -2.42898,-4.02942 -1.46121,-3.94214 -1.66843,-7.14894 -0.56385,-8.72595 1.03902,-1.4834 3.79782,-2.26967 6.80521,-1.93951 1.39845,0.15352 3.42837,0.11678 4.51093,-0.0816 l 1.96829,-0.36079 -0.17711,-4.66445 c -0.0974,-2.56545 -0.25628,-4.7495 -0.35303,-4.85345 -0.0968,-0.10396 -1.45637,0.26164 -3.02137,0.81243 -4.44715,1.56515 -9.44098,3.06711 -10.19775,3.06711 -0.37877,0 -0.84574,0.71966 -1.03771,1.59924 -0.6339,2.90446 -4.09981,11.26414 -5.71124,13.77531 -3.30991,5.15806 -6.00415,7.71701 -12.81117,12.16791 -2.71855,1.7775 -3.21374,2.3012 -2.83869,3.0019 0.49163,0.9187 2.02234,10.1612 2.92786,17.6787 0.3097,2.5711 0.67141,5.0542 0.80379,5.518 0.26178,0.9172 0.11115,0.9297 7.0747,-0.5899 z m -124.78832,-5.8427 2.90442,-0.3156 0.87364,-2.6871 c 0.48051,-1.4778 1.26096,-2.9702 1.73435,-3.3164 0.47338,-0.3461 0.76614,-0.7037 0.65058,-0.7946 -0.11556,-0.091 -2.72463,-0.6599 -5.79792,-1.2645 -5.17956,-1.0189 -5.65267,-1.0405 -6.4757,-0.2956 -0.48834,0.4419 -1.03472,1.3961 -1.21417,2.1205 -0.17945,0.7243 -0.97102,2.5902 -1.75903,4.1464 l -1.43275,2.8294 3.80608,-0.053 c 2.09334,-0.029 5.11306,-0.1955 6.7105,-0.3691 z m 101.27292,-15.5354 c 15.69048,-6.4951 24.67732,-13.11832 29.13407,-24.88409 2.51976,-6.65217 2.93033,-9.92456 2.96345,-23.61946 l 0.0291,-12.05577 -2.16037,-3.15014 c -1.1882,-1.73258 -4.1452,-5.3329 -6.57111,-8.00071 -6.21671,-6.83658 -7.77738,-7.62239 -22.36289,-11.2599 -10.93529,-2.72717 -12.33147,-2.96123 -20.95446,-3.51297 -11.6831,-0.74753 -17.01828,-0.22004 -30.86534,3.05168 -10.32797,2.44025 -20.25091,5.6816 -28.54019,9.32272 -2.57108,1.12936 -6.00328,2.56634 -7.62712,3.19328 -5.3901,2.08106 -15.18474,7.25481 -20.421,10.78683 -3.60816,2.43382 -7.05934,5.40379 -11.44068,9.84548 -3.45065,3.49819 -6.27392,6.61654 -6.27392,6.92967 0,0.64427 9.82421,7.28909 11.99596,8.11373 1.33229,0.50588 1.39805,0.6613 1.10752,2.61728 -0.16989,1.1437 -0.65428,4.62593 -1.07643,7.73828 -0.42214,3.11236 -1.15568,7.45839 -1.63008,9.65785 -0.8362,3.8769 -0.83444,4.01656 0.0576,4.57365 0.6433,0.40176 0.87455,1.02849 0.7686,2.08309 -0.14551,1.4482 -0.0141,1.5619 3.29295,2.8496 5.97518,2.3266 9.59541,4.369 9.59541,5.4133 0,0.5465 -0.46613,1.0922 -1.10716,1.296 -1.02481,0.3258 -0.97718,0.3971 0.64027,0.9577 0.96109,0.3331 2.95398,0.7655 4.42865,0.9608 1.47467,0.1954 4.00981,0.65 5.63365,1.0103 3.92309,0.8703 23.63337,1.6824 47.17693,1.9438 10.52084,0.1169 16.25914,-0.8532 19.5086,-0.7608 8.02293,-0.8176 16.57829,-1.8429 24.69799,-5.1012 z m -120.60465,-4.3651 c 1.06246,-1.6438 1.85377,-3.2226 1.75849,-3.5085 -0.21041,-0.6312 -8.73845,-2.69982 -11.22774,-2.72345 -0.98566,-0.009 -2.06557,-0.35499 -2.41152,-0.77183 -0.94324,-1.13654 0.10476,-2.80444 4.5701,-7.27332 2.85359,-2.85584 4.12318,-3.80568 4.93296,-3.69054 2.12869,0.30269 1.56984,2.00956 -1.70822,5.21735 -2.00777,1.96473 -2.92056,3.18999 -2.60608,3.49822 0.55353,0.54254 6.6271,2.01903 8.30531,2.01903 1.03319,0 1.19632,-0.4166 2.1677,-5.53581 1.37326,-7.23717 2.25359,-15.1507 1.73771,-15.62075 -0.22499,-0.20499 -2.16212,-1.28588 -4.30474,-2.40195 -3.09454,-1.61193 -4.41771,-2.02924 -6.43418,-2.02924 -2.97539,0 -3.64769,0.57247 -6.18219,5.26412 -3.08538,7.55606 -2.86602,5.8701 -6.06705,12.84672 l -3.30855,7.23088 1.28547,1.02524 c 0.70702,0.56389 4.15296,2.77823 7.65766,4.92073 3.5047,2.1425 7.09021,4.3514 7.96781,4.9087 1.28343,0.8149 1.62886,0.8762 1.76548,0.3132 0.0934,-0.3851 1.03913,-2.045 2.10158,-3.6888 z m -17.40945,-30.83718 c 0.57195,-0.53285 1.73271,-2.24895 2.57946,-3.81356 3.01836,-5.57723 14.63004,-17.88825 19.20153,-20.35798 0.94724,-0.51174 2.94013,-1.91302 4.42865,-3.11394 5.22944,-4.2191 15.52117,-10.24354 33.46091,-19.58693 3.11235,-1.62098 6.76599,-3.66903 8.11919,-4.55122 1.3532,-0.88219 4.42516,-2.88365 6.8266,-4.4477 4.27197,-2.78232 10.1499,-8.00127 10.1499,-9.01197 0,-0.9859 -12.68636,-6.60977 -17.94324,-7.95425 -7.70258,-1.96999 -11.30944,-1.82671 -25.60516,1.01713 -21.93017,4.36256 -32.11853,11.25703 -38.12073,25.79635 -4.7459,11.49615 -6.35958,18.06923 -6.40252,26.07983 -0.0248,4.61822 1.49664,20.91306 1.95259,20.91306 0.17211,0 0.78087,-0.43597 1.35282,-0.96882 z m 163.59415,-50.19172 c 4.48999,-4.214 12.3193,-13.43491 16.02418,-18.87235 2.41657,-3.54666 4.74271,-8.72755 6.00442,-13.37334 0.588,-2.16512 1.17968,-4.32391 1.31484,-4.79732 0.46203,-1.61832 -1.88836,-1.95263 -6.11859,-0.87029 -10.35521,2.64949 -24.88258,3.59253 -38.80319,2.51892 -8.01106,-0.61785 -23.84923,-3.16693 -32.00363,-5.15084 -4.11375,-1.00085 -5.32607,-1.12547 -6.73678,-0.69251 -1.89094,0.58035 -1.99744,0.78175 -3.71396,7.02375 -0.5954,2.16512 -1.97488,6.04019 -3.06552,8.61126 -5.06219,11.93372 -10.91079,18.56728 -22.44565,25.45819 -2.51079,1.49994 -4.47115,2.82108 -4.35636,2.93587 0.11479,0.11479 2.05835,-0.35364 4.31903,-1.04096 6.97748,-2.12139 20.5803,-5.24591 26.00754,-5.97385 6.03067,-0.80888 15.08653,-0.89403 23.23864,-0.2185 6.93834,0.57495 27.81842,5.54968 31.64481,7.53946 1.34363,0.69871 2.79047,1.28068 3.21521,1.29329 0.42474,0.0126 2.8885,-1.96325 5.47501,-4.39078 z"
       inkscape:connector-curvature="0"
       sodipodi:nodetypes="csssssssssscssscssssssssssssssssssssscscsscssssscsssscssscsssssssssssssssscsssscccscsssscscssssscccssssscscsssssssssssssscscscssssssssscccccsssssssscsssssscsscsssssssccscssssscscccscsccssssccscsscsssssssssssssscssssssssccsccssssssscsscccssscssssssssssssssssssssssssssssssscs"
       id="path4192" />
    <path
       style="fill:#000000"
       d="m 406.73921,672.0438 c -19.32317,-0.6591 -38.67155,-2.3648 -48.71515,-4.2947 -2.0298,-0.39 -9.33707,-1.6206 -16.23838,-2.7345 -13.64085,-2.2019 -22.8762,-4.3166 -26.97006,-6.1758 -3.52235,-1.5996 -8.97453,-2.6853 -16.08626,-3.2034 -6.69106,-0.4875 -6.45977,-0.4406 -13.77802,-2.7941 -8.93624,-2.8739 -13.64815,-4.0614 -16.14081,-4.0679 -3.24331,-0.01 -8.74422,-2.8415 -10.25105,-5.2796 -0.90517,-1.4646 -0.99577,-1.9815 -0.55297,-3.1546 0.29125,-0.7716 0.43721,-1.7928 0.32436,-2.2692 -0.11286,-0.4765 0.24628,-2.5271 0.79809,-4.5569 0.55181,-2.0298 1.1987,-4.4656 1.43754,-5.4128 l 0.43425,-1.7223 -1.06462,1.453 c -2.03637,2.7792 -3.21219,3.7138 -4.67254,3.7138 -0.79108,0 -1.72714,-0.348 -2.08014,-0.7733 -0.55303,-0.6664 -0.82313,-0.275 -1.9526,2.8294 -3.19184,8.7728 -9.94581,24.817 -10.68273,25.3769 -1.19415,0.9074 -2.3741,0.7533 -3.83149,-0.5003 -1.00061,-0.8607 -1.62492,-2.3494 -2.73411,-6.5199 -0.79058,-2.9725 -1.99373,-7.4925 -2.67367,-10.0444 -0.67993,-2.5519 -1.55921,-7.2019 -1.95394,-10.3335 -1.60039,-12.69657 -2.19246,-35.87548 -1.2277,-48.06349 0.72201,-9.12133 2.77002,-24.5135 3.91504,-29.42417 1.07014,-4.58956 3.989,-12.26666 5.15273,-13.55256 0.65763,-0.72668 0.46358,-1.01331 -1.97574,-2.91844 -1.48774,-1.16194 -3.18243,-2.7584 -3.76597,-3.54768 -0.70109,-0.94828 -1.49695,-1.43506 -2.34625,-1.43506 -2.93759,0 -3.18531,-2.21784 -0.80297,-7.18896 0.9148,-1.90885 3.05054,-7.21699 4.74611,-11.79585 6.74102,-18.20411 10.5376,-25.14083 24.62083,-44.98457 4.79689,-6.75899 5.32992,-7.2562 7.06514,-6.59033 1.91526,0.73495 0.82437,3.06479 -7.57857,16.18573 -10.26156,16.02313 -12.79441,21.0891 -18.97609,37.95425 -1.69942,4.63645 -3.47264,9.17014 -3.94048,10.07484 l -0.85062,1.64492 3.19469,2.96508 c 5.20856,4.83419 14.96991,9.2198 26.7773,12.03058 16.94588,4.034 22.52796,5.05749 29.02762,5.32226 l 6.45448,0.26293 2.87261,-5.11103 c 3.47065,-6.17508 6.14153,-12.24915 9.2795,-21.10337 1.29487,-3.65363 2.57889,-7.25191 2.85338,-7.99617 0.34891,-0.94601 0.84394,-1.3532 1.64511,-1.3532 1.67071,0 2.19862,1.2971 1.42283,3.49592 -0.3572,1.01244 -1.54916,5.26622 -2.64878,9.45286 -2.43871,9.28498 -4.54757,14.96602 -6.88364,18.54384 -0.9719,1.48852 -2.32068,3.80041 -2.99728,5.13754 -1.65298,3.26671 -3.66636,4.26368 -9.25565,4.58316 -4.19469,0.23977 -4.27815,0.26909 -4.37175,1.53579 -0.11108,1.50343 -4.26307,11.56723 -8.18581,19.8412 -6.87392,14.49867 -11.3041,28.04348 -11.87815,36.3162 -0.33445,4.81981 -0.96122,7.92985 -1.98336,9.84148 -1.45733,2.7254 -5.59379,18.644 -4.96203,19.0956 0.70544,0.5042 4.86482,1.699 10.62035,3.0508 2.57108,0.6038 7.29691,1.9718 10.50186,3.0401 6.88455,2.2946 12.03548,3.3536 16.31179,3.3536 4.16685,0 11.91841,1.6061 15.36301,3.183 4.47746,2.0499 12.92643,3.918 32.12624,7.1034 22.98117,3.8126 22.86225,3.7969 35.67523,4.7175 15.50388,1.114 32.35511,1.6676 44.2865,1.455 23.39162,-0.4168 30.43421,-0.7674 35.6018,-1.7723 2.80133,-0.5447 5.6246,-0.857 6.27392,-0.694 0.78504,0.197 1.17497,0.087 1.16379,-0.3282 -0.038,-1.4136 -1.86235,-8.2894 -2.35774,-8.8863 -0.2941,-0.3543 -0.68573,-1.6297 -0.87029,-2.8342 -0.18456,-1.2044 -1.39448,-6.5078 -2.68871,-11.7853 -1.29423,-5.2775 -3.05005,-12.9169 -3.90183,-16.9765 -0.85177,-4.05958 -2.5185,-11.14542 -3.70385,-15.7463 -5.05415,-19.61748 -6.22647,-30.75906 -5.85889,-55.68193 0.29923,-20.28854 0.56652,-23.14444 3.17039,-33.8752 1.05076,-4.33024 2.57285,-11.85894 3.38242,-16.73045 0.80958,-4.87152 2.34666,-11.95736 3.41573,-15.74631 1.06906,-3.78896 2.29416,-8.4594 2.72244,-10.37878 1.5789,-7.07612 4.29174,-14.67876 6.82143,-19.11684 7.19481,-12.62254 17.60014,-29.3915 22.46004,-36.19602 4.44939,-6.22975 12.31913,-16.27756 14.74116,-18.821 1.7208,-1.80707 1.7432,-1.88199 1.10339,-3.69054 -0.95728,-2.70592 -6.52397,-13.71757 -8.91938,-17.64371 -8.82438,-14.46339 -17.91092,-18.73192 -36.14248,-16.97845 -9.39871,0.90396 -8.44901,0.41204 -11.80636,6.11529 -3.65307,6.20556 -7.633,11.50216 -11.48498,15.28449 -2.45586,2.41144 -3.1503,2.84272 -4.16668,2.58762 -1.4594,-0.36628 -2.00218,-1.51563 -1.31879,-2.79255 0.27387,-0.51173 2.38386,-3.5141 4.68886,-6.67193 5.07729,-6.95581 9.57182,-14.37884 9.57182,-15.8085 0,-1.03857 2.08129,-3.08718 3.14181,-3.09248 1.70327,-0.009 4.14526,-1.11645 4.60674,-2.09008 0.28824,-0.6081 2.20902,-2.98343 4.26841,-5.27849 4.37059,-4.87076 9.59712,-12.50853 11.74297,-17.16054 1.3843,-3.00104 1.51148,-3.71891 1.54513,-8.72109 0.0347,-5.16074 0.10869,-5.54531 1.38986,-7.22524 0.74426,-0.9759 1.3532,-1.96215 1.3532,-2.19168 0,-0.22952 1.05643,-1.51753 2.34762,-2.86224 2.99603,-3.12021 6.08832,-4.65926 9.3615,-4.65926 2.19781,0 2.9655,-0.31292 6.38847,-2.60405 2.13976,-1.43222 6.72511,-3.89954 10.18966,-5.48292 7.79337,-3.56176 8.10211,-3.51767 10.63163,1.51807 0.97209,1.93521 2.61831,4.67771 3.65828,6.09443 l 1.89086,2.57587 4.9023,-0.27014 c 5.56922,-0.30688 7.79085,0.34964 8.6375,2.55247 0.26955,0.7013 0.6385,3.11827 0.81989,5.37103 0.18723,2.32513 0.5722,4.18715 0.89047,4.30693 0.30836,0.11605 3.54131,0.015 7.18434,-0.22456 6.97348,-0.45857 8.61108,-0.19463 9.14043,1.4732 0.15759,1.55184 1.49289,3.14189 -1.43608,8.02709 -0.91534,1.373 -2.87326,4.37854 -4.35093,6.67898 -1.47767,2.30044 -3.62364,5.3592 -4.76882,6.79725 -2.34606,2.94604 -8.19822,9.21017 -12.73869,11.57804 -2.8182,1.46969 -3.88681,0.59872 -3.39993,1.6673 0.42499,0.93276 0.32544,1.39309 -0.53717,2.48393 -2.73259,3.45556 -5.74357,8.34847 -9.15652,14.87952 -2.04825,3.91957 -4.30716,7.63761 -5.01978,8.26231 l -1.29569,1.13583 2.26704,4.81967 c 1.24688,2.65083 2.53136,5.96474 2.8544,7.36426 0.5338,2.31254 0.49684,2.66582 -0.40537,3.87423 -0.546,0.73131 -1.52586,1.45551 -2.17748,1.60934 -3.31129,0.78168 -16.91215,20.79885 -34.26326,50.42717 -5.99093,10.22998 -6.72723,11.94938 -10.00934,23.37343 -1.12743,3.92428 -2.45629,8.24221 -2.95303,9.59541 -1.42921,3.89343 -3.79568,13.41028 -4.40492,17.7146 -0.98565,6.9637 -1.87009,11.66105 -3.47435,18.4527 l -1.56915,6.64298 -0.22909,18.71395 c -0.31446,25.68626 0.98973,39.27502 5.33519,55.58894 0.79298,2.97704 2.21406,8.845 3.15797,13.03992 0.94389,4.19493 3.13879,13.60583 4.87752,20.91303 4.14463,17.4183 5.69111,24.7118 5.68638,26.818 -0.006,2.5944 -1.56436,4.7833 -3.7913,5.3247 -9.28763,2.2577 -41.0116,3.5527 -66.08314,2.6975 z M 241.88423,641.7553 c 4.44284,-10.9701 5.46942,-14.3601 5.77449,-19.0689 0.27131,-4.18771 0.23375,-4.39197 -1.30052,-7.0736 -1.79918,-3.14464 -1.84369,-4.89899 -0.13046,-5.14185 0.62384,-0.0884 1.4206,0.0769 1.77058,0.36731 0.47092,0.39083 0.86744,0.27274 1.5254,-0.4543 1.07852,-1.19175 2.83909,-1.26991 3.93435,-0.17465 0.68853,0.68853 0.7579,1.51103 0.46995,5.57252 -0.28468,4.01545 -0.20311,5.02527 0.51867,6.42097 0.71545,1.3835 0.9477,1.5364 1.41047,0.9286 0.3047,-0.4003 1.90458,-2.4907 3.5553,-4.6454 3.89135,-5.0795 4.32196,-5.96928 5.84586,-12.07942 2.89624,-11.61262 4.6398,-15.9283 13.67214,-33.8413 4.82535,-9.56968 8.6903,-17.65196 8.58876,-17.96063 -0.10153,-0.30867 -0.72084,-0.62366 -1.37624,-0.69999 -2.23758,-0.26058 -9.05711,-1.64087 -19.15227,-3.87644 -9.67126,-2.1417 -18.28708,-4.87238 -23.23406,-7.36375 -1.27654,-0.64288 -2.51192,-1.16887 -2.7453,-1.16887 -0.47377,0 -1.99628,3.25039 -3.48436,7.43876 -1.43243,4.0317 -2.31482,9.22624 -3.54269,20.85539 -1.86909,17.70205 -1.48976,47.65214 0.79872,63.06425 1.11936,7.5385 3.22727,15.4213 4.12378,15.4213 0.18528,0 1.52512,-2.934 2.97743,-6.52 z m 277.0517,-280.59554 c 0.6107,-1.89662 0.77854,-3.11317 0.47182,-3.4199 -0.80204,-0.80204 -0.5338,-4.22763 0.43976,-5.61609 0.50371,-0.71837 1.20183,-2.19187 1.55138,-3.27443 0.34954,-1.08256 1.39773,-3.73974 2.3293,-5.90486 2.92366,-6.79503 2.83935,-6.32488 1.07072,-5.97116 -0.84595,0.16919 -4.86628,1.63728 -8.93405,3.26241 -4.06778,1.62513 -7.73695,2.95478 -8.15371,2.95478 -1.44913,0 -2.5575,-1.54967 -2.5575,-3.57576 0,-2.1581 2.16694,-11.4804 3.27209,-14.07674 0.38867,-0.91308 0.57948,-1.78734 0.42404,-1.94278 -0.35239,-0.35239 -7.45179,1.18042 -17.63633,3.8078 -4.28412,1.1052 -8.19382,2.00946 -8.68822,2.00946 -0.65353,0 -0.82938,0.26588 -0.64421,0.97399 0.17712,0.67732 -0.40389,1.70649 -1.90751,3.37888 -1.18921,1.32269 -3.97002,5.25769 -6.17957,8.74444 -2.20954,3.48675 -5.08089,7.64308 -6.38077,9.23629 -1.29987,1.59322 -2.63778,3.26499 -2.97312,3.71506 -0.56263,0.75513 0.0452,0.81685 7.87316,0.79954 9.41551,-0.0208 12.3266,0.51437 17.79289,3.27109 7.28805,3.67548 11.85977,8.50042 18.69347,19.72888 l 0.83931,1.37907 4.17458,-8.26808 c 2.29601,-4.54744 4.60113,-9.59279 5.12247,-11.21189 z m 11.81526,-11.13422 c 6.68756,-3.97939 8.49003,-6.87433 14.67178,-15.11298 l 5.84118,-7.78477 -6.93989,0.003 c -7.53063,0.003 -10.79143,-0.60893 -11.63458,-2.18435 -0.29084,-0.54345 -0.68211,-3.13776 -0.86949,-5.76513 l -0.34068,-4.77703 -2.7064,0.11803 c -1.48852,0.0649 -3.74019,0.48968 -5.00372,0.94394 -2.0864,0.75008 -2.40447,0.75571 -3.46427,0.0613 -1.56837,-1.02764 -5.60831,-7.12273 -7.01849,-10.58887 -0.62687,-1.5408 -1.34898,-2.8712 -1.6047,-2.95644 -0.63343,-0.21115 -14.54662,6.88081 -14.745,7.51594 -0.15914,0.50952 1.82658,1.61054 8.78344,4.87014 4.76289,2.23163 7.03734,4.62218 6.65272,6.9923 -0.1461,0.90029 -0.0588,1.76473 0.19404,1.92099 0.91295,0.56423 0.42844,4.8657 -1.08628,9.64392 -0.85027,2.68221 -1.39835,5.02434 -1.21795,5.20473 0.37095,0.37095 13.8499,-3.95968 16.63647,-5.3451 1.97203,-0.98044 3.1085,-0.8067 3.8557,0.58944 0.82704,1.54534 0.54051,2.76266 -1.70389,7.23903 -1.84597,3.6817 -4.70672,10.53764 -4.70672,11.27988 0,0.52493 2.86476,0.23963 6.40673,-1.86797 z m -41.83593,-25.79686 c 3.383,-0.89841 6.73841,-1.85741 7.45647,-2.13111 0.71805,-0.27371 2.71043,-0.7524 4.4275,-1.06376 1.71707,-0.31137 3.44035,-0.74431 3.8295,-0.96209 1.01363,-0.56725 -12.36494,-6.89761 -14.57741,-6.89761 -2.16328,0 -4.85985,1.39941 -7.34634,3.81247 -2.22397,2.15829 -4.27979,5.96049 -3.88799,7.19078 0.14126,0.44357 0.35912,1.13478 0.48414,1.53604 0.2777,0.89128 1.20834,0.74756 9.61413,-1.48472 z m -54.6288,190.03761 c -0.94241,-0.63222 -4.13829,-2.54023 -7.10196,-4.24003 -2.96368,-1.69979 -6.51681,-3.92407 -7.89586,-4.94283 -3.61606,-2.67133 -9.10493,-8.74935 -9.10493,-10.0822 0,-1.58932 1.22228,-2.94958 8.24855,-9.17972 3.44717,-3.05658 8.18692,-7.39131 10.53278,-9.63275 2.34586,-2.24143 4.69072,-4.07534 5.21079,-4.07534 0.53112,0 1.19128,0.53922 1.5061,1.23018 0.30828,0.6766 0.76831,1.23018 1.02229,1.23018 0.25398,0 1.89563,1.83625 3.64811,4.08056 1.75248,2.24432 4.51627,5.31185 6.14174,6.81675 1.62548,1.5049 3.29262,3.37764 3.70477,4.16165 0.41215,0.784 1.20966,1.8108 1.77225,2.28177 1.9854,1.66205 1.38449,3.14095 -5.06897,12.47545 -3.35053,4.84632 -6.55339,9.30971 -7.11747,9.91865 -1.32626,1.43176 -3.3238,1.41638 -5.49819,-0.0423 z m 7.49547,-13.69658 5.27235,-7.42421 -2.55711,-2.27383 c -3.67033,-3.26371 -4.60463,-4.29428 -7.63775,-8.42473 -1.49054,-2.0298 -2.88517,-3.8874 -3.09918,-4.128 -0.33392,-0.37541 -4.53754,3.30682 -14.82398,12.9853 l -2.35341,2.21432 4.21392,4.33225 c 3.40841,3.50412 5.21889,4.89089 9.47129,7.25466 2.89156,1.60732 5.4788,2.91476 5.74944,2.90542 0.27064,-0.009 2.86464,-3.35786 5.76443,-7.44118 z m -69.86356,-14.68485 c -4.50572,-1.1806 -9.92384,-3.71498 -18.67022,-8.73322 -14.00959,-8.03799 -20.63846,-12.965 -25.73517,-19.12805 -7.30528,-8.8337 -8.50157,-10.75658 -10.07935,-16.20116 -1.30732,-4.51127 -1.12583,-6.12235 0.68965,-6.12235 1.23062,0 1.85506,0.86586 2.28557,3.1692 1.01438,5.4271 13.42858,19.39636 22.60701,25.43887 14.1944,9.34471 23.76592,14.57994 31.82711,17.40812 l 3.779,1.32581 5.47527,-4.34661 c 8.72562,-6.92695 12.05144,-12.04103 15.50234,-23.83781 0.98428,-3.36471 2.68288,-8.66414 3.77467,-11.7765 1.09179,-3.11235 2.31767,-7.43029 2.72417,-9.5954 0.90685,-4.83004 1.18775,-5.4128 2.60908,-5.4128 2.11001,0 2.30149,1.25265 1.07111,7.00717 -0.62262,2.91205 -1.77155,8.39469 -2.55318,12.18365 -1.84269,8.93255 -4.87113,18.24115 -7.44415,22.88135 -2.86755,5.17134 -9.16459,11.32458 -14.73545,14.39893 -4.90379,2.70622 -7.07142,2.92762 -13.12746,1.3408 z"
       id="path4196"
       inkscape:connector-curvature="0"
       sodipodi:nodetypes="cssssscsccsscsssssssssssssssssssssscssscsscsssssssssssssssssssscssssssssssssssssssssssccssssssssssscsssssccssssssscssssssssscsssscsccsssccsssssssscsssssssssscssssssssssssssssssscsssscccsccsssscsssscsssssscssssssscssssssssssssssccscsssscsscssssssssscssssssssss" />
    <path
       style="fill:#000000"
       d="m 451.89122,750.02937 c -1.32311,-1.2449 -6.0593,-4.4778 -10.52485,-7.1843 -4.46556,-2.70637 -9.55851,-5.98867 -11.31766,-7.29407 -4.52352,-3.3566 -12.9851,-12.1507 -17.30985,-17.99 -9.01169,-12.1676 -20.52315,-32.412 -23.60274,-41.5085 -0.77309,-2.2836 -1.40562,-4.2053 -1.40562,-4.2705 0,-0.065 0.34632,-0.4649 0.7696,-0.8882 0.67138,-0.6714 0.93929,-0.6818 2.09907,-0.082 0.97545,0.5044 2.28255,2.5671 4.90885,7.7465 1.96868,3.8825 5.61883,10.4712 8.11144,14.6417 l 4.53203,7.5826 6.15091,1.6509 c 11.13316,2.9882 16.39359,3.7158 27.06397,3.7433 l 9.5954,0.025 0.11185,-2.1729 c 0.31393,-6.0989 1.28966,-16.4025 1.88332,-19.8876 0.3688,-2.1651 0.7936,-5.2651 0.944,-6.889 0.45266,-4.8875 0.91788,-6.38 2.0395,-6.5432 0.5531,-0.081 1.49116,0.2516 2.08457,0.7381 0.99719,0.8174 1.04188,1.0894 0.58989,3.5908 -1.69509,9.3809 -2.67355,30.4771 -1.97419,42.5642 0.63987,11.0588 1.56604,17.4711 3.49578,24.20277 0.82892,2.8916 1.53947,6.2536 1.579,7.471 0.0639,1.9674 -0.065,2.2529 -1.15831,2.5664 -0.6766,0.1941 -2.36195,0.3749 -3.74524,0.4018 -2.34032,0.046 -2.6822,-0.1082 -4.92072,-2.2144 z m 1.99942,-9.82717 c -1.48387,-5.8385 -2.58326,-14.8262 -2.88492,-23.5845 -0.12119,-3.5183 -0.23601,-6.636 -0.25516,-6.9281 -0.0191,-0.2922 -1.40696,0.1489 -3.08402,0.9801 -2.97914,1.4766 -3.20805,1.5107 -9.96446,1.4825 -7.00766,-0.029 -12.35214,-0.7521 -20.13518,-2.7234 -2.1288,-0.5392 -3.95598,-0.8949 -4.06039,-0.7905 -0.10442,0.1044 0.73639,1.4996 1.86846,3.1005 6.40549,9.0579 14.90806,17.5029 22.49991,22.3475 6.38058,4.0716 13.10031,8.51887 15.25649,10.09717 0.92264,0.6753 1.75031,1.1551 1.83926,1.0661 0.089,-0.089 -0.39704,-2.3603 -1.07999,-5.04737 z m -198.10206,8.57957 c -0.94965,-0.9496 -1.02109,-1.4013 -0.74265,-4.6952 0.16944,-2.0045 0.9607,-7.56577 1.75835,-12.35827 1.70568,-10.2483 2.74014,-18.4888 3.47209,-27.6584 0.72289,-9.0563 0.74413,-9.2202 2.14776,-16.5753 4.38088,-22.956 11.50601,-40.9315 16.01678,-40.4077 1.67846,0.195 1.9339,1.8839 0.57379,3.794 -3.3494,4.7038 -8.67442,23.3354 -11.56192,40.4537 l -0.3004,1.7809 4.53148,0.8291 c 9.6356,1.7628 20.84042,3.2056 27.42687,3.5316 l 6.87334,0.3402 1.27252,-2.163 c 0.69988,-1.1897 3.37388,-5.706 5.94221,-10.0362 4.82901,-8.1418 7.38166,-13.8589 8.11368,-18.172 1.02795,-6.0566 2.73808,-9.5375 4.04412,-8.2314 0.3133,0.3133 1.41802,0.5696 2.45495,0.5696 2.43304,0 2.71057,0.7764 1.44853,4.0526 -0.54882,1.4247 -1.48636,4.2511 -2.08341,6.2809 -1.68864,5.7409 -4.3386,11.466 -8.65576,18.7002 -5.14933,8.6288 -6.13284,10.5993 -5.76661,11.5537 0.19999,0.5211 -0.35501,1.4023 -1.6452,2.6118 -1.07085,1.004 -2.88569,3.2211 -4.03298,4.927 -3.20264,4.762 -12.74734,15.6884 -17.07763,19.5499 -5.08619,4.5355 -6.29316,5.4547 -16.1827,12.3246 -16.2856,11.31287 -15.90301,11.12197 -18.02721,8.99767 z m 18.27324,-16.69507 c 8.05012,-5.6018 14.00554,-10.8574 19.6054,-17.3017 4.24157,-4.8811 8.42799,-10.2209 8.43755,-10.7622 0.003,-0.1611 -2.8181,-0.4344 -6.26875,-0.6072 -6.6123,-0.3311 -15.82002,-1.5871 -23.91967,-3.2627 -2.66853,-0.5521 -5.01859,-1.0037 -5.22236,-1.0037 -0.20377,0 -0.5207,2.1589 -0.7043,4.7976 -0.56684,8.1471 -2.20431,21.6885 -3.49273,28.8839 -0.67596,3.775 -1.22901,7.163 -1.22901,7.52887 0,0.3999 1.22706,-0.19557 3.07545,-1.49247 1.6915,-1.1868 6.06479,-4.238 9.71842,-6.7804 z"
       id="path4198"
       inkscape:connector-curvature="0" />
  </g>
  <g
     inkscape:groupmode="layer"
     id="layer4"
     inkscape:label="Sombras"
     style="opacity:0.14500002;display:inline">
    <path
       style="fill:#000000;fill-opacity:1;stroke:#000000;stroke-width:0.99999994;stroke-linecap:round;stroke-linejoin:round;stroke-miterlimit:4;stroke-opacity:1;stroke-dasharray:none;stroke-dashoffset:0"
       d="m 336.28657,434.58165 c -0.86254,-0.05 -5.28923,-0.24489 -9.83712,-0.43298 -4.54787,-0.18811 -9.74443,-0.48364 -11.5479,-0.65675 -5.88201,-0.56458 -15.70798,-2.48889 -16.39519,-3.21079 -0.18668,-0.19612 -0.0636,-0.50121 0.35641,-0.88362 1.65765,-1.5092 0.28872,-2.80524 -6.2217,-5.89038 -4.7879,-2.26889 -5.11235,-2.55021 -5.11235,-4.4327 0,-0.41189 -0.31556,-1.16655 -0.70124,-1.67704 l -0.70122,-0.92815 0.83097,-5.27675 c 1.14745,-7.28614 2.28229,-16.14669 2.28229,-17.81946 0,-1.36536 -0.033,-1.41408 -1.63952,-2.42179 -2.18122,-1.36817 -8.56514,-6.05363 -9.71038,-7.12687 -0.50097,-0.46948 -0.91085,-0.97858 -0.91085,-1.13133 0,-0.15274 0.80017,-1.23039 1.77817,-2.39478 l 1.77817,-2.11707 2.16061,0.18557 c 4.23931,0.36409 8.64106,2.79464 11.62136,6.41704 1.91721,2.33027 3.54362,5.43204 6.46238,12.32459 3.21505,7.5922 5.39386,10.94476 9.41738,14.4906 3.05275,2.69034 15.61603,11.95668 18.07397,13.33087 6.67987,3.73463 14.53461,5.55602 27.40484,6.35475 15.94879,0.98977 28.01018,0.87631 34.52042,-0.004 2.91751,-0.39442 -2.76893,0.24044 -6.79118,1.0901 -6.10194,1.28881 -10.6745,1.78616 -19.3178,2.10122 -7.28059,0.26537 -23.98089,0.33117 -27.80052,0.10953 z"
       id="path4483"
       inkscape:connector-curvature="0"
       sodipodi:nodetypes="cssccssscsssssscssssssscsc" />
    <path
       style="fill:none;stroke:#000000;stroke-width:1px;stroke-linecap:butt;stroke-linejoin:miter;stroke-opacity:1"
       d="m 337.65809,433.86248 c 0.54146,4.62951 1.63838,9.1938 3.25973,13.56379 6.29234,16.95956 20.88634,30.61118 38.2276,35.75909"
       id="path4527"
       inkscape:path-effect="#path-effect4529"
       inkscape:original-d="m 337.65809,433.86248 c 1.17959,4.46959 1.31127,9.00328 3.25973,13.56379 6.53504,15.29581 22.28997,31.61428 38.2276,35.75909"
       inkscape:connector-curvature="0" />
    <path
       style="fill:none;stroke:#000000;stroke-width:1px;stroke-linecap:butt;stroke-linejoin:miter;stroke-opacity:1"
       d="m 266.99931,463.94138 c -2.63471,2.73381 -4.95948,5.76611 -6.91553,9.02024 -8.61184,14.32685 -9.44189,33.02893 -2.13314,48.06239 7.30875,15.03345 22.52967,25.9321 39.11616,28.00838"
       id="path4551"
       inkscape:path-effect="#path-effect4553"
       inkscape:original-d="m 266.99931,463.94138 c 2.53454,-5.08122 -6.38586,7.96091 -6.91553,9.02024 -14.8145,29.62901 5.08663,68.98268 36.98302,76.07077"
       inkscape:connector-curvature="0" />
    <path
       style="fill:none;stroke:#000000;stroke-width:1px;stroke-linecap:butt;stroke-linejoin:miter;stroke-opacity:1"
       d="m 305.48569,536.10337 c -7.57787,15.40752 -11.81239,32.44889 -12.32767,49.61136 -0.18162,6.04943 0.0986,12.15363 1.50338,18.04049 2.19361,9.19239 7.10822,17.62207 13.4975,24.58548 6.38927,6.96342 14.21997,12.50721 22.58349,16.9076 12.17629,6.40644 25.45489,10.43142 38.78706,13.8311 41.27865,10.52598 83.99547,15.39631 126.58414,14.4324"
       id="path4591"
       inkscape:path-effect="#path-effect4593"
       inkscape:original-d="m 305.48569,536.10337 c -10.2852,14.25876 -11.47878,32.63366 -12.32767,49.61136 -0.30378,6.07567 0.60128,12.02651 1.50338,18.04049 3.52949,23.52998 15.66,31.72658 36.08099,41.49308 12.61948,6.0354 25.28853,10.2579 38.78706,13.8311 40.95126,10.84 84.28852,14.4324 126.58414,14.4324"
       inkscape:connector-curvature="0" />
    <path
       style="fill:none;stroke:#000000;stroke-width:1px;stroke-linecap:butt;stroke-linejoin:miter;stroke-opacity:1"
       d="m 471.45824,669.9037 -0.60135,-3.6081"
       id="path4627"
       inkscape:path-effect="#path-effect4629"
       inkscape:original-d="m 471.45824,669.9037 c 1.59036,-5.4327 -2.46464,0.1185 -0.60135,-3.6081"
       inkscape:connector-curvature="0" />
    <path
       style="fill:#000000;fill-opacity:1;stroke:#000000;stroke-width:1;stroke-linecap:round;stroke-linejoin:round;stroke-miterlimit:4;stroke-opacity:1;stroke-dasharray:none;stroke-dashoffset:0"
       d="m 265.19228,389.85067 c -0.16978,-0.27688 -0.64109,-4.56826 -1.04736,-9.53642 -0.89865,-10.98923 -0.33637,-16.20909 2.74186,-25.45402 3.35282,-10.0696 6.53996,-15.9782 11.08819,-20.55622 3.46638,-3.48909 8.4375,-7.15175 8.4375,-6.21664 0,0.18584 -0.50694,1.05619 -1.12653,1.9341 -3.29192,4.66438 -6.55191,13.13913 -7.88752,20.50457 -0.88254,4.86689 -0.90028,15.62085 -0.0336,20.36065 l 0.69289,3.78936 -3.05796,3.34591 c -1.68189,1.84024 -4.31396,5.14126 -5.84905,7.3356 -3.50792,5.01438 -3.58508,5.10195 -3.95842,4.49311 z"
       id="path4763"
       inkscape:connector-curvature="0" />
    <path
       style="fill:#000000;fill-opacity:1;stroke:#000000;stroke-width:1;stroke-linecap:round;stroke-linejoin:round;stroke-miterlimit:4;stroke-opacity:1;stroke-dasharray:none;stroke-dashoffset:0"
       d="m 277.09155,546.316 c -21.79579,-4.19436 -33.88643,-8.86434 -41.72378,-16.11572 l -2.42193,-2.24085 1.51974,-4.05963 c 4.39469,-11.73938 8.37288,-21.33312 11.11525,-26.80532 3.15595,-6.2975 8.94962,-16.26154 9.26166,-15.92836 0.0967,0.10322 -0.37122,2.21722 -1.03975,4.69779 -1.69131,6.27566 -1.8176,18.91141 -0.25243,25.25669 3.78991,15.36444 15.14473,28.66589 29.85541,34.97374 4.79615,2.05656 3.46387,2.10333 -6.31417,0.22166 z"
       id="path4765"
       inkscape:connector-curvature="0" />
    <path
       style="fill:#000000;fill-opacity:1;stroke:#000000;stroke-width:1;stroke-linecap:round;stroke-linejoin:round;stroke-miterlimit:4;stroke-opacity:1;stroke-dasharray:none;stroke-dashoffset:0"
       d="m 233.25106,585.5087 c 0.31786,-20.08809 1.44813,-32.47289 2.96358,-32.47289 0.29309,0 0.37914,-0.24878 0.19121,-0.55284 -0.42505,-0.68776 2.40106,-9.59338 3.49516,-11.01392 0.75262,-0.97718 1.19893,-0.90788 7.05804,1.09596 3.44005,1.1765 10.1093,3.14041 14.82058,4.36423 l 8.56595,2.22513 -5.48687,3.87264 c -13.77242,9.72057 -24.48584,24.05855 -30.01299,40.16697 l -1.79924,5.24375 0.20458,-12.92903 z"
       id="path4767"
       inkscape:connector-curvature="0" />
    <path
       style="fill:#000000;fill-opacity:1;stroke:#000000;stroke-width:1;stroke-linecap:round;stroke-linejoin:round;stroke-miterlimit:4;stroke-opacity:1;stroke-dasharray:none;stroke-dashoffset:0"
       d="m 268.07141,685.3821 c 1.42058,-8.8211 7.64084,-31.6131 8.84278,-32.4014 0.31942,-0.2094 0.55764,-0.5596 0.52939,-0.7781 -0.0282,-0.2184 -0.0514,-0.6774 -0.0514,-1.0197 0,-0.8182 5.22985,-0.809 5.71889,0.01 0.20774,0.348 0.60585,0.4867 0.88469,0.3083 0.27883,-0.1784 2.35734,0.079 4.61891,0.5708 2.26156,0.4923 6.81801,1.3345 10.12543,1.8715 7.43742,1.2075 11.82397,2.2166 12.68368,2.9178 0.36117,0.2945 0.77614,0.4119 0.92214,0.2607 0.14601,-0.1511 2.25433,0.3538 4.68517,1.1222 l 4.4197,1.3971 -6.84522,1.7399 c -15.78952,4.0134 -30.80692,12.1214 -43.1487,23.2962 l -3.83059,3.4683 0.44509,-2.7637 z"
       id="path4769"
       inkscape:connector-curvature="0" />
    <path
       style="fill:#000000;fill-opacity:1;stroke:#000000;stroke-width:1;stroke-linecap:round;stroke-linejoin:round;stroke-miterlimit:4;stroke-opacity:1;stroke-dasharray:none;stroke-dashoffset:0"
       d="m 383.53046,665.6059 c -18.40043,-1.3728 -52.17976,-7.2149 -66.05445,-11.4242 -4.86967,-1.4773 -11.14854,-2.8426 -16.33047,-3.5508 -5.72546,-0.7825 -12.84383,-2.3916 -22.24994,-5.0295 -16.34711,-4.5845 -15.93577,-4.436 -15.93577,-5.7538 0,-1.3999 3.91774,-15.6151 5.05125,-18.3279 0.49878,-1.1938 1.20689,-4.39977 1.57358,-7.12445 1.7128,-12.7269 3.71283,-18.99599 12.89959,-40.4336 3.40163,-7.93781 6.55202,-15.47144 7.00086,-16.74139 0.93811,-2.65428 1.59663,-3.09887 5.4082,-3.65123 l 2.76802,-0.40113 -1.68781,6.69623 c -3.87364,15.36827 -4.62492,34.80584 -1.7535,45.36771 4.59547,16.90346 18.02494,31.56386 38.19571,41.69666 3.30742,1.6615 8.13062,3.8565 10.71822,4.8778 9.29193,3.6675 28.68125,8.9988 46.05344,12.663 7.39347,1.5594 7.82954,1.7196 4.56602,1.6771 -1.98445,-0.026 -6.58478,-0.2691 -10.22295,-0.5405 z"
       id="path4771"
       inkscape:connector-curvature="0" />
    <path
       style="fill:#000000;fill-opacity:1;stroke:#000000;stroke-width:0.99999994;stroke-linecap:round;stroke-linejoin:round;stroke-miterlimit:4;stroke-opacity:1;stroke-dasharray:none;stroke-dashoffset:0"
       d="m 414.58562,702.7988 c -4.11721,-1.042 -7.34007,-2.1306 -7.16191,-2.4188 0.17815,-0.2884 0.0914,-0.5243 -0.19275,-0.5243 -0.73633,0 -2.66515,-3.4258 -2.1941,-3.897 0.21575,-0.2158 0.0936,-0.3924 -0.2713,-0.3924 -0.64276,0 -8.52362,-13.1637 -8.86614,-14.8095 -0.0934,-0.4488 -0.33931,-0.9539 -0.54645,-1.1224 -0.20716,-0.1684 -1.25999,-1.879 -2.33965,-3.8012 l -1.96301,-3.4949 30.1083,0.2038 c 16.55955,0.1121 30.35092,0.4465 30.64747,0.7431 0.31052,0.3106 -1.29298,1.9662 -3.78091,3.9038 -7.47324,5.8203 -15.4373,15.0354 -20.78099,24.0454 -2.50203,4.2187 -2.28018,4.1912 -12.65856,1.5644 z"
       id="path4773"
       inkscape:connector-curvature="0" />
    <path
       style="fill:#000000;fill-opacity:1;stroke:#000000;stroke-width:1;stroke-linecap:round;stroke-linejoin:round;stroke-miterlimit:4;stroke-opacity:1;stroke-dasharray:none;stroke-dashoffset:0"
       d="m 461.05608,480.04515 c 0.30198,-13.86127 1.68691,-21.68516 5.72974,-32.36893 7.64286,-20.19738 22.4255,-36.95541 40.73984,-46.18385 2.59575,-1.30798 4.82583,-2.27229 4.95575,-2.14292 0.12991,0.12936 -2.6991,3.82014 -6.28668,8.20175 -7.90822,9.65846 -16.59188,21.56435 -24.31966,33.34387 -10.44712,15.92466 -12.39256,20.27123 -17.95191,40.10902 l -3.13141,11.17399 0.26433,-12.13293 z"
       id="path4775"
       inkscape:connector-curvature="0" />
    <path
       style="fill:#000000;fill-opacity:1;stroke:#000000;stroke-width:1;stroke-linecap:round;stroke-linejoin:round;stroke-miterlimit:4;stroke-opacity:1;stroke-dasharray:none;stroke-dashoffset:0"
       d="m 357.83174,473.70182 c -5.9885,-3.4794 -14.9474,-9.18039 -18.04049,-11.48006 -2.81034,-2.08945 -11.59466,-10.80413 -14.13703,-14.02497 -2.84537,-3.60468 -4.67186,-6.53295 -5.37665,-8.61994 -1.12894,-3.34297 -1.93593,-3.06496 8.1632,-2.81222 4.83711,0.12106 8.8351,0.25751 8.88444,0.30324 0.0493,0.0457 0.40995,1.486 0.80136,3.20063 1.97016,8.63047 5.7708,16.50162 11.28486,23.37101 2.9391,3.6615 7.81625,8.4191 11.12638,10.85363 2.9514,2.17068 2.89229,2.12153 2.53069,2.1043 -0.1516,-0.007 -2.50813,-1.31025 -5.23676,-2.89562 z"
       id="path4779"
       inkscape:connector-curvature="0" />
    <path
       style="fill:#000000;fill-opacity:1;stroke:#000000;stroke-width:1;stroke-linecap:round;stroke-linejoin:round;stroke-miterlimit:4;stroke-opacity:1;stroke-dasharray:none;stroke-dashoffset:0"
       d="m 417.57426,715.4244 c -2.93613,-3.6696 -4.90261,-6.5194 -4.90261,-7.1049 0,-0.8298 0.642,-0.8354 4.57116,-0.04 2.07513,0.4202 4.09422,0.766 4.48687,0.7685 1.55541,0.01 1.55324,0.2876 -0.0336,4.2858 -0.82918,2.0892 -1.5076,3.9325 -1.5076,4.0962 0,0.9059 -0.73689,0.3405 -2.61426,-2.0058 z"
       id="path4781"
       inkscape:connector-curvature="0" />
  </g>
</svg>
